<?xml version="1.0" encoding="UTF-8" standalone="no"?><!DOCTYPE svg PUBLIC "-//W3C//DTD SVG 1.1//EN" "http://www.w3.org/Graphics/SVG/1.1/DTD/svg11.dtd"><svg width="100%" height="100%" viewBox="0 0 30 30" version="1.1" xmlns="http://www.w3.org/2000/svg" xmlns:xlink="http://www.w3.org/1999/xlink" xml:space="preserve" xmlns:serif="http://www.serif.com/" style="fill-rule:evenodd;clip-rule:evenodd;stroke-linejoin:round;stroke-miterlimit:2;"><path d="M13.798,3.545l0.14,-0.008l0.14,-0.006l0.14,-0.004l0.14,-0.003l0.284,0l0,-0.024l0.14,0.003l0.14,0.004l0.14,0.006l0.14,0.008l0.28,0.02l0.14,0.014l0.138,0.015l0.138,0.016l0.411,0.06l0.135,0.024l0.136,0.025l0.134,0.027l0.134,0.028l0.134,0.03l0.133,0.032l0.132,0.033l0.132,0.034l0.13,0.037l0.13,0.038l0.26,0.08l0.128,0.043l0.127,0.044l0.127,0.046l0.126,0.047l0.126,0.048l0.125,0.05l0.123,0.052l0.123,0.053l0.123,0.054l0.12,0.056l0.12,0.057l0.24,0.12l0.118,0.062l0.118,0.063l0.116,0.064l0.116,0.065l0.114,0.067l0.114,0.07l0.113,0.07l0.112,0.07l0.11,0.072l0.1,0.074l0.1,0.075l0.108,0.076l0.107,0.077l0.106,0.078l0.106,0.08l0.104,0.08l0.103,0.082l0.103,0.084l0.1,0.084l0.1,0.086l0.1,0.087l0.098,0.088l0.097,0.09l0.096,0.09l0.095,0.09l0.094,0.093l0.093,0.094l0.09,0.095l0.09,0.096l0.09,0.097l0.088,0.098l0.087,0.1l0.086,0.1l0.084,0.1l0.084,0.103l0.082,0.103l0.08,0.104l0.08,0.106l0.078,0.106l0.077,0.107l0.076,0.108l0.075,0.1l0.074,0.1l0.072,0.11l0.07,0.112l0.07,0.113l0.07,0.114l0.067,0.114l0.065,0.116l0.064,0.116l0.063,0.118l0.062,0.118l0.12,0.24l0.057,0.12l0.056,0.12l0.054,0.122l0.053,0.124l0.052,0.123l0.05,0.125l0.048,0.126l0.047,0.126l0.046,0.127l0.044,0.127l0.043,0.128l0.08,0.26l0.038,0.13l0.037,0.13l0.034,0.132l0.033,0.132l0.032,0.133l0.03,0.134l0.028,0.134l0.027,0.134l0.025,0.136l0.024,0.135l0.06,0.411l0.016,0.138l0.015,0.138l0.014,0.14l0.02,0.28l0.008,0.14l0.006,0.14l0.004,0.14l0.003,0.14l0,0.284l-0.003,0.14l-0.004,0.14l-0.006,0.14l-0.008,0.14l-0.02,0.28l-0.014,0.14l-0.015,0.138l-0.016,0.138l-0.02,0.137l-0.04,0.274l-0.024,0.135l-0.025,0.136l-0.027,0.134l-0.028,0.134l-0.03,0.134l-0.032,0.133l-0.033,0.132l-0.034,0.132l-0.037,0.13l-0.038,0.13l-0.08,0.26l-0.043,0.128l-0.044,0.127l-0.046,0.127l-0.047,0.126l-0.048,0.126l-0.05,0.125l-0.052,0.123l-0.053,0.123l-0.054,0.123l-0.056,0.12l-0.057,0.12l-0.12,0.24l-0.062,0.118l-0.063,0.118l-0.064,0.116l-0.065,0.116l-0.067,0.114l-0.07,0.114l-0.07,0.113l-0.07,0.112l-0.072,0.11l-0.074,0.1l-0.075,0.1l-0.076,0.108l-0.077,0.107l-0.078,0.106l-0.08,0.106l-0.08,0.104l-0.082,0.103l-0.084,0.103l-0.084,0.1l-0.086,0.1l-0.087,0.1l-0.088,0.098l-0.09,0.097l-0.09,0.096l-0.09,0.095l-0.093,0.094l-0.094,0.093l-0.095,0.09l-0.096,0.09l-0.097,0.09l-0.098,0.088l-0.1,0.087l-0.1,0.086l-0.1,0.084l-0.103,0.084l-0.103,0.082l-0.104,0.08l-0.106,0.08l-0.106,0.078l-0.107,0.077l-0.108,0.076l-0.1,0.075l-0.1,0.074l-0.11,0.072l-0.112,0.07l-0.113,0.07l-0.114,0.07l-0.114,0.067l-0.116,0.065l-0.116,0.064l-0.118,0.063l-0.118,0.062l-0.24,0.12l-0.12,0.057l-0.12,0.056l-0.123,0.054l-0.123,0.053l-0.123,0.052l-0.125,0.05l-0.126,0.048l-0.126,0.047l-0.127,0.046l-0.127,0.044l-0.128,0.043l-0.26,0.08l-0.13,0.038l-0.13,0.037l-0.132,0.034l-0.132,0.033l-0.133,0.032l-0.134,0.03l-0.134,0.028l-0.134,0.027l-0.136,0.025l-0.135,0.024l-0.411,0.06l-0.138,0.016l-0.138,0.015l-0.14,0.014l-0.28,0.02l-0.14,0.008l-0.14,0.006l-0.14,0.004l-0.14,0.003l-0.284,0l-0.14,-0.003l-0.14,-0.004l-0.14,-0.006l-0.14,-0.008l-0.28,-0.02l-0.14,-0.014l-0.138,-0.015l-0.138,-0.016l-0.411,-0.06l-0.135,-0.024l-0.136,-0.025l-0.134,-0.027l-0.134,-0.028l-0.134,-0.03l-0.133,-0.032l-0.132,-0.033l-0.132,-0.034l-0.13,-0.037l-0.13,-0.038l-0.26,-0.08l-0.128,-0.043l-0.127,-0.044l-0.127,-0.046l-0.126,-0.047l-0.126,-0.048l-0.125,-0.05l-0.123,-0.052l-0.124,-0.053l-0.122,-0.054l-0.12,-0.056l-0.12,-0.057l-0.24,-0.12l-0.118,-0.062l-0.118,-0.063l-0.116,-0.064l-0.116,-0.065l-0.114,-0.067l-0.114,-0.07l-0.113,-0.07l-0.112,-0.07l-0.11,-0.072l-0.1,-0.074l-0.1,-0.075l-0.108,-0.076l-0.107,-0.077l-0.106,-0.078l-0.106,-0.08l-0.104,-0.08l-0.103,-0.082l-0.103,-0.084l-0.1,-0.084l-0.1,-0.086l-0.1,-0.087l-0.098,-0.088l-0.097,-0.09l-0.096,-0.09l-0.095,-0.09l-0.094,-0.093l-0.093,-0.094l-0.09,-0.095l-0.09,-0.096l-0.09,-0.097l-0.088,-0.098l-0.087,-0.1l-0.086,-0.1l-0.084,-0.1l-0.084,-0.103l-0.082,-0.103l-0.08,-0.104l-0.08,-0.106l-0.078,-0.106l-0.077,-0.107l-0.076,-0.108l-0.075,-0.1l-0.074,-0.1l-0.072,-0.11l-0.07,-0.112l-0.07,-0.113l-0.07,-0.114l-0.067,-0.114l-0.065,-0.116l-0.064,-0.116l-0.063,-0.118l-0.062,-0.118l-0.12,-0.24l-0.057,-0.12l-0.056,-0.12l-0.054,-0.123l-0.053,-0.123l-0.052,-0.123l-0.05,-0.125l-0.048,-0.126l-0.047,-0.126l-0.046,-0.127l-0.044,-0.127l-0.043,-0.128l-0.08,-0.26l-0.038,-0.13l-0.037,-0.13l-0.034,-0.132l-0.033,-0.132l-0.032,-0.133l-0.03,-0.134l-0.028,-0.134l-0.027,-0.134l-0.025,-0.136l-0.024,-0.135l-0.06,-0.411l-0.016,-0.138l-0.015,-0.138l-0.014,-0.14l-0.02,-0.28l-0.008,-0.14l-0.006,-0.14l-0.004,-0.14l-0.003,-0.14l0,-0.26l0.003,-0.14l0.004,-0.14l0.006,-0.14l0.008,-0.14l0.02,-0.28l0.014,-0.14l0.015,-0.138l0.016,-0.138l0.06,-0.411l0.024,-0.135l0.025,-0.136l0.027,-0.134l0.028,-0.134l0.03,-0.134l0.032,-0.133l0.033,-0.132l0.034,-0.132l0.037,-0.13l0.038,-0.13l0.08,-0.26l0.043,-0.128l0.044,-0.127l0.046,-0.127l0.047,-0.126l0.048,-0.126l0.05,-0.125l0.052,-0.123l0.053,-0.123l0.054,-0.123l0.056,-0.12l0.057,-0.12l0.12,-0.24l0.062,-0.118l0.063,-0.118l0.064,-0.116l0.065,-0.116l0.067,-0.114l0.07,-0.114l0.07,-0.113l0.07,-0.112l0.072,-0.11l0.074,-0.1l0.075,-0.1l0.076,-0.108l0.077,-0.107l0.078,-0.106l0.08,-0.106l0.08,-0.104l0.082,-0.103l0.084,-0.103l0.084,-0.1l0.086,-0.1l0.087,-0.1l0.088,-0.098l0.09,-0.097l0.09,-0.096l0.09,-0.095l0.093,-0.094l0.094,-0.093l0.095,-0.09l0.096,-0.09l0.097,-0.09l0.098,-0.088l0.1,-0.087l0.1,-0.086l0.1,-0.084l0.103,-0.084l0.103,-0.082l0.104,-0.08l0.106,-0.08l0.106,-0.078l0.107,-0.077l0.108,-0.076l0.1,-0.075l0.1,-0.074l0.11,-0.072l0.112,-0.07l0.113,-0.07l0.114,-0.07l0.114,-0.067l0.116,-0.065l0.116,-0.064l0.118,-0.063l0.118,-0.062l0.24,-0.12l0.12,-0.057l0.12,-0.056l0.123,-0.054l0.123,-0.053l0.123,-0.052l0.125,-0.05l0.126,-0.048l0.126,-0.047l0.127,-0.046l0.127,-0.044l0.128,-0.043l0.26,-0.08l0.13,-0.038l0.13,-0.037l0.132,-0.034l0.132,-0.033l0.133,-0.032l0.134,-0.03l0.134,-0.028l0.134,-0.027l0.136,-0.025l0.135,-0.024l0.411,-0.06l0.138,-0.016l0.138,-0.015l0.14,-0.014l0.28,-0.02Zm2.262,2.095c1.494,1.378 2.554,4.827 2.554,8.86c0,4.025 -1.056,7.469 -2.546,8.852l0.132,-0.024l0.1,-0.022l0.11,-0.023l0.218,-0.05l0.216,-0.056l0.107,-0.03l0.106,-0.03l0.106,-0.032l0.105,-0.033l0.105,-0.035l0.105,-0.036l0.103,-0.037l0.206,-0.08l0.102,-0.04l0.1,-0.042l0.1,-0.043l0.2,-0.1l0.098,-0.047l0.098,-0.048l0.098,-0.05l0.192,-0.102l0.096,-0.052l0.094,-0.054l0.094,-0.055l0.093,-0.056l0.093,-0.057l0.09,-0.058l0.27,-0.18l0.09,-0.062l0.174,-0.128l0.087,-0.065l0.17,-0.134l0.083,-0.068l0.083,-0.07l0.164,-0.14l0.08,-0.072l0.08,-0.073l0.078,-0.074l0.078,-0.075l0.077,-0.076l0.076,-0.077l0.075,-0.078l0.074,-0.078l0.073,-0.08l0.072,-0.08l0.14,-0.164l0.07,-0.083l0.068,-0.083l0.134,-0.17l0.065,-0.087l0.128,-0.174l0.062,-0.09l0.18,-0.27l0.058,-0.09l0.057,-0.093l0.056,-0.093l0.055,-0.094l0.054,-0.094l0.052,-0.096l0.102,-0.192l0.05,-0.098l0.048,-0.098l0.047,-0.098l0.1,-0.2l0.043,-0.1l0.042,-0.1l0.04,-0.102l0.08,-0.206l0.037,-0.103l0.036,-0.105l0.035,-0.105l0.033,-0.105l0.032,-0.106l0.03,-0.106l0.03,-0.107l0.056,-0.216l0.05,-0.218l0.023,-0.11l0.022,-0.1l0.04,-0.22l0.018,-0.11l0.017,-0.112l0.015,-0.112l0.013,-0.113l0.012,-0.113l0.02,-0.228l0.008,-0.114l0.006,-0.115l0.005,-0.115l0.004,-0.116l0.002,-0.116l0,-0.226l-0.002,-0.116l-0.004,-0.116l-0.005,-0.115l-0.006,-0.115l-0.008,-0.114l-0.02,-0.228l-0.012,-0.113l-0.013,-0.113l-0.015,-0.112l-0.017,-0.112l-0.018,-0.11l-0.04,-0.22l-0.022,-0.1l-0.023,-0.11l-0.05,-0.218l-0.056,-0.216l-0.03,-0.107l-0.03,-0.106l-0.032,-0.106l-0.033,-0.105l-0.035,-0.105l-0.036,-0.105l-0.037,-0.103l-0.08,-0.206l-0.04,-0.102l-0.042,-0.1l-0.043,-0.1l-0.1,-0.2l-0.047,-0.098l-0.048,-0.098l-0.05,-0.098l-0.102,-0.192l-0.052,-0.096l-0.054,-0.094l-0.055,-0.094l-0.056,-0.093l-0.057,-0.093l-0.058,-0.09l-0.18,-0.27l-0.062,-0.09l-0.128,-0.174l-0.065,-0.087l-0.134,-0.17l-0.068,-0.083l-0.07,-0.083l-0.14,-0.164l-0.072,-0.08l-0.073,-0.08l-0.074,-0.078l-0.075,-0.078l-0.076,-0.077l-0.077,-0.076l-0.078,-0.075l-0.078,-0.074l-0.08,-0.073l-0.08,-0.072l-0.164,-0.14l-0.083,-0.07l-0.083,-0.068l-0.17,-0.134l-0.087,-0.065l-0.174,-0.128l-0.09,-0.062l-0.27,-0.18l-0.09,-0.058l-0.093,-0.057l-0.093,-0.056l-0.094,-0.055l-0.094,-0.054l-0.096,-0.052l-0.192,-0.102l-0.098,-0.05l-0.098,-0.048l-0.098,-0.047l-0.2,-0.1l-0.1,-0.043l-0.1,-0.042l-0.102,-0.04l-0.206,-0.08l-0.103,-0.037l-0.105,-0.036l-0.105,-0.035l-0.105,-0.033l-0.106,-0.032l-0.106,-0.03l-0.107,-0.03l-0.216,-0.056l-0.218,-0.05l-0.11,-0.023l-0.1,-0.022l-0.14,-0.026Z" style="fill:#797979;"/></svg>