<?xml version="1.0" encoding="utf-8"?>
<!-- Generator: Adobe Illustrator 24.0.1, SVG Export Plug-In . SVG Version: 6.00 Build 0)  -->
<svg version="1.1" id="Layer_1" xmlns="http://www.w3.org/2000/svg" xmlns:xlink="http://www.w3.org/1999/xlink" x="0px" y="0px"
	 viewBox="0 0 343.5 47.2" style="enable-background:new 0 0 343.5 47.2;" xml:space="preserve">
<style type="text/css">
	.st0{fill:#FFFFFF;}
</style>
<title>logo</title>
<g>
	<path class="st0" d="M20.5,26.6l0.4-0.8l0.5-0.9c0.5-0.3,0.6-0.8,1-1.3l0.5-0.6l0.6-1.2c0.2-0.4,0.5-0.9,0.9-1.2
		c0-0.1,0-0.2,0.3-0.4l0.9-1.2c0.5-0.4,0.9-0.9,1.2-1.5c0-0.1,0-0.2,0.1-0.2c0.2-0.3,0.3-0.5,0.5-0.6c0-0.4-0.7-0.5-0.5-0.7l1.2-0.2
		c0-0.1,0-0.1,0.1-0.2c0.1-0.4,0.3-0.8,0.7-1c-0.1-0.2,0.2-0.4,0.4-0.7h0l0.7-0.8c0.1-0.1,0.2-0.2,0.2-0.4c0.1-0.3-0.4-0.6-0.3-0.7
		c0-0.1,0-0.2,0-0.2c0.2,0,0.2,0,0.3-0.2c0.1-0.2,0.1-0.3,0.1-0.4c0.2-0.1,0.2-0.3,0.2-0.5c0-0.5-0.2-0.9-0.9-0.8c0,0-0.1,0-0.1,0
		c0,0,0,0,0-0.1c0-0.2-1.3-0.3-1.6-0.3c-0.3-0.2-1-0.5-1.3-0.8l-0.1-0.2L26,8.9c0-0.6-0.2-0.3-0.5,0l-1,1.2c-0.4,0.5-0.9,1-1.4,1.4
		c-0.5,0.9-1.1,1.8-1.7,2.7l-5,7.4c-0.5,0.7-0.6,0.8-0.6,0.8s0.1,0-0.4,0.7l0,0.2c-4.2,5.9-3.7,6.2-7.8,12.4
		c-0.1,0.1-0.1,0.2-0.1,0.2c0-0.1,0,0-0.1-0.2c0.1-0.1,0-0.4,0-0.4c0,0,0.1-0.2,0.1-0.3c0.1-0.1,0.1-0.3,0.1-0.3
		c0-0.3,0-0.6-0.1-0.8c0-0.1,0-0.5,0.1-0.7c0,0.1,0.2-0.7,0.3-1.1c0.1-0.2,0.1-0.5,0.1-0.7c0-0.1-0.1-0.2-0.1-0.3
		c0.1-0.3,0.1-0.6,0.2-0.9c0-0.1,0.1-0.2,0.1-0.3l0.5-2.4c0-0.1,0-0.3,0-0.4c0.2-0.3,0.2-0.6,0.3-0.9c0.1-0.8,0.3-1.5,0.6-2.3
		c0.1-0.4,0.2-0.9,0.3-1.3c0.3-1.5,0.7-3,1.2-4.5l0.2-0.6c0-0.1,0.2-0.4,0.2-0.7c0,0,0-0.2,0-0.2c0.2-0.6,0.3-1.2,0.3-1.8
		c0-0.8-0.3-1.5-0.8-2.1h0C11,12.5,10.5,12,10.5,12c-1-0.6-2.2-1-3.3-1.3v0.1L7,10.5c-0.2,0-1,0.7-1,0.7c-0.5,0.5-0.8,1.2-0.9,1.9
		c0,0.1,0,0.3-0.1,0.4c0,0.2-0.1,0.4-0.2,0.6l-0.2,0.7c-0.1,0.1-0.1,0.2-0.2,0.3c0,0.3-0.1,0.6-0.2,0.8l-0.3,1.3
		c-0.2,0.7-0.5,1.6-0.7,2.4l-0.3,1c-0.1,0.4-0.2,0.7-0.4,1.1c-0.1,0.4-0.2,0.8-0.3,1.4c0,0.3,0,0.6-0.1,0.8c0,0.1,0,0.2,0,0.3
		c-0.1,0.4-0.2,0.9-0.3,1.3c-0.5,2.5-0.9,5-1.1,7.5c-0.5,3.3-0.7,6.6-0.6,9.9c0,0,0,0.1,0,0.1c0,0,0.1,0.1,0.1,0.1
		c0,0.4,0.3,0.7,0.6,0.8c0.1,0.1,0.4,0.1,0.6,0.4c0-0.3,0.6-0.4,1.2-0.4c0.2,0,0.2,0,0.2-0.1c0.3,0,0.4,0.2,0.7,0.5
		c0.3,0,0.6,0.1,0.8,0.1c0.1,0,0.4,0,0.5,0c0.1,0,0.3,0,0.4,0c0.1,0,0.4,0,0.5,0c0.2,0,0.4,0,0.6,0c0.7,0,2.7-0.1,3.4-0.8v0.1
		c0.5-0.4,1-0.9,1.2-1.5l0.4-0.9v0.1c0.2-0.6,0.7-1,1.1-1.8c0.4-0.7,1-1.6,1.3-2.4c0.2-0.4,0.5-0.8,0.7-1.1c0.1-0.4,0.3-0.8,0.5-1.2
		c0.1-0.4,0.3-0.7,0.5-0.9l0.4-0.6c0.4-0.7,1.1-1.6,1.5-2.4l0.9-1.5c0,0,0.1-0.1,0.1-0.1c0,0,0-0.1,0.1-0.1l1-1.5
		C19.8,27.4,20.2,27,20.5,26.6z M29.1,10.2c0.2,0,0.4-0.1,0.5-0.2v0.1l-0.3,0.2c-0.1,0-0.2,0-0.3,0L29.1,10.2z"/>
	<path class="st0" d="M53,34.4c0-0.2,0.1-0.3,0.3-0.5l-0.1,0L53,34.4z"/>
	<path class="st0" d="M50.9,37.3C50.9,37.3,50.9,37.3,50.9,37.3L50.9,37.3C50.9,37.3,50.9,37.3,50.9,37.3C51,37.3,51,37.3,50.9,37.3
		L50.9,37.3z"/>
	<path class="st0" d="M47.7,43.5C47.7,43.5,47.7,43.5,47.7,43.5C47.7,43.5,47.7,43.5,47.7,43.5C47.7,43.5,47.7,43.5,47.7,43.5z"/>
	<path class="st0" d="M53,34.5L53,34.5C52.9,34.6,52.9,34.7,53,34.5z"/>
	<path class="st0" d="M87.1,39.3L87.1,39.3c-0.4,0.2-0.7,0.4-1.1,0.7C86.4,39.9,86.8,39.6,87.1,39.3z"/>
	<path class="st0" d="M88.3,38.5l0.3-0.4C88.5,38.2,88.3,38.3,88.3,38.5z"/>
	<path class="st0" d="M89,38L89,38c0.1-0.1,0.2-0.1,0.1-0.2C89,38,89,37.9,89,38z"/>
	<path class="st0" d="M85.6,40.2C85.6,40.1,85.4,40.3,85.6,40.2L85.6,40.2C85.6,40.2,85.6,40.2,85.6,40.2z"/>
	<path class="st0" d="M99.7,29.2c0.2-0.2,0.9-0.9,1.2-1.2c0.8-0.9,1.5-1.9,2.2-2.9c1.3-1.7,2.1-3.8,2.2-5.9c0-0.9-0.1-1.8-0.2-2.7
		c-0.3-0.6-0.5-1.2-0.7-1.8c-0.1,0-0.1,0-0.2-0.1c-0.5-0.8-1.2-1.5-1.9-2.1c-2.1-1.8-5-2.6-7.9-2.9c-2.7-0.2-5.5-0.1-8.2,0.2
		c-0.1-0.1-0.3-0.1-0.4-0.1c-0.5,0.2-0.5,0.1-1.4,0.2c-2.4,0.5-1.6-0.1-3.9,0.5c0,0-0.1,0-0.1,0c-0.4-0.5-0.8-0.9-1.4-1.1V9
		c-0.6-0.4-1.2-0.7-1.9-0.8c0-0.1-0.6-0.2-0.7-0.4c-0.6,0-0.5,0.3-0.6,0.7h-0.2c-0.1,0.5-0.5,0.6-0.6,0.8c-0.5,0.4-0.7,0.6-0.7,1
		c-0.1,0.2-0.2,0.4-0.2,0.6v0.3c-0.8,1.7-1.9,5.2-2.8,6.8c-1.8,4.5-1.6,4.4-3.5,9.2c-0.4,1.5-0.9,3-1.6,4.5c0,0.5-0.2,1-0.5,1.3
		c-0.7-2.6-0.5-4.6-1-7.5c-0.4-1-0.7-5.1-1-6.1c0-0.1,0-0.1,0-0.3c-0.1-0.5-0.1-1.1-0.1-1.6c-0.1-0.9-0.2-1.8-0.3-2.8
		c-0.1-0.5-0.2-1-0.4-1.5c0-0.3,0-0.6-0.1-0.9c-0.1-0.2-0.2-0.3-0.4-0.5c0-0.2-0.1-0.4-0.3-0.5c-0.3-0.4-0.7-0.7-1.2-1.1
		c-0.5-0.4-1.1-0.6-1.7-0.7c-0.5-0.3-1-0.4-1.5-0.4c-0.1,0.3-0.2,0.4-0.5,0.4c-0.4,0.4-0.8,0.8-1.3,1.1c-0.3,0.4-0.6,0.9-0.9,1.3
		l-0.2,0.9c-0.3,0.3-0.5,0.7-0.7,1c-0.2,0.5-0.4,1-0.7,1.4c-0.4,1-0.9,1.8-1.4,3c-0.6,1.2-2,4.5-2.6,5.9c-0.6,1.1-1.1,3.3-1.7,4.5
		c-1.3,2.7-0.4,1.8-1.5,4.1c-0.6-0.1-1.5,0-1.9,0c-1,0.2-1.8,0.3-2.4,0.5l-1.2,0.4c-1,0.3-2,0.6-3.1,1l-2.5,0.8L32,36.6L31.1,37
		c-0.8,0.3-1.4,0.6-2,0.7s-0.8,0.1-1.4,0.3c-0.8,0.3-1.2,0-0.9-1c0-0.3,0-0.1,0-0.3c0-0.5,0.2-0.9,0.4-1.3l1.3-3.1l0.3-0.6
		c0.2-0.5,0.4-1,0.7-1.5c0.3-0.1,0.7-0.2,1-0.2c0.3,0.1,0.7,0,0.9-0.3c0.3-0.1,0.5-0.1,0.8-0.2l1.1-0.2c0.3-0.1,0.6-0.1,0.9-0.1
		c0.5-0.2,0.7-0.2,0.9-0.3c0.6-0.1,1.2-0.2,1.8-0.5l0.5-0.4c0.6-0.3,1.3-0.4,1.9-0.5l0.8-0.2c0.4-0.2,0.9-0.3,1.3-0.3
		C41.7,27,42,27,42.3,27c0.4,0,0.7-0.1,1-0.3v-0.3c0.1-0.1,0.2-0.1,0.2-0.3l0.4-0.2c-0.1-0.1,0.1-0.2,0.2-0.2s0.2-0.1,0.3-0.1
		c0.6-0.3,0.7-0.7,0.3-0.9c0,0-0.1,0-0.1,0c0.4,0,0.2,0-0.6,0h-0.4c0-0.2,0.1-0.5,0.2-0.7c0.1,0,0.2,0,0.2-0.1s0,0,0.1,0l0.4-0.3
		v0.1l0.6-0.4l0.2-0.2c0-0.1,0.1-0.2,0.1-0.4l-0.1-0.3c-1.3-0.2-2.5-0.2-3.8,0.1l-1,0.1c-2.7,0.3-5.4,0.7-8.1,1.4
		c0.7-1.4,2.5-3.3,3-4.7c0.1-0.1,0.1-0.1,0.1-0.1s0.1-0.1,0-0.1l0.1-0.1c0.1-0.7,0.9-0.8,1.4-1l0.4-0.1c0.3,0,1-0.4,1.8-0.7l1.2-0.5
		c0.3-0.1,0.5-0.1,0.8-0.1l0.7-0.1c0.2,0,0.3,0,0.5-0.1c0.3-0.1,0.6-0.1,0.8-0.2c0.2-0.1,0.4,0,0.6,0c0.2,0,0.2-0.2,0.4-0.2
		c0.1-0.1,0.2-0.1,0.4,0c0.3-0.1,0.7-0.1,1-0.1c0.5,0,1.1-0.2,1.4-0.5l0.4-0.2c0,0,0.1,0,0.1,0l0.2-0.2c0.2-0.2,0.3-0.5,0.3-0.8
		c0.2,0,0.2-0.1,0.2-0.3l0.1-0.1h0.2c0.1-0.4,0-0.6,0.8-0.6c-0.5-0.5-0.5-1.2,0.5-1.8c0.5-0.7,0.1-0.9-0.5-0.9H49
		c-0.7-0.1-1.4-0.2-2.1-0.2c-2.8,0-5.6,0.3-8.4,1.1l-2.9,0.6c0.3,0.3-0.6-0.4-0.8-0.6c-0.2-0.2-0.4-0.4-0.6-0.6L34,10.9
		c-0.1,0-0.2-0.1-0.4-0.1h0.1c-0.4-0.3-0.8-0.2-1.1,0.1l-0.7,0.7c-0.4,0.4-0.6,0.8-0.8,1.3c-1.1,2.2-2.6,4.2-3.6,6.5
		c-1.1,1.9-2.2,4-3.1,6.2l-0.8,1.6c0,0.1-0.1,0.3-0.2,0.3c0,0,0,0.2,0,0.2c-0.2,0.5-0.4,1-0.7,1.5c-0.9,2.5-1.7,5-2.4,7.6l-0.1,0.4
		c-0.1,0.2-0.2,0.5-0.2,0.8l-0.7,2.5c-0.1,0.8-0.3,2.6,0.5,2.9c0.5,0.6,0.3,0.9,0.7,1.1c0.3,0.1,0.6,0.2,0.8,0.4
		c0.2,0.2,0.4,0.3,0.6,0.3c0.1,0.2,0.4,0.3,0.6,0.4l0.3-0.1l0.5,0.1c0.9,0.3,1.9,0.2,2.7-0.2c0.4-0.1,0.8-0.4,1.1-0.7l1.1-0.5h0.4
		c0.3-0.1,0.9-0.1,1.1-0.4l2.1-0.9C31.9,43,32,43,32.1,43c0.4-0.2,0.4-0.2,0.5-0.2c0.2,0,0.4,0,0.6,0l0.2-0.2
		c0.3-0.1,0.5-0.2,0.8-0.2c0.1-0.3,0.3-0.5,0.6-0.6l0.7-0.2c0.1,0,0.1,0,0.2,0c0.3-0.1,0.7-0.2,1-0.3l-0.1-0.1
		c0.5-0.3,1-0.5,1.5-0.6l0.6-0.1h0.2c0.1,0,0.2,0.1,0.6-0.4c0-0.1,0.3-0.3,0.3-0.3l2.4-1.1l-0.1-0.2H42l0.3-0.1c0,0,0.1,0,0.1,0V38
		c0,0,0.1,0,0.1,0c0.4-0.2,0.9-0.4,1.3-0.6c0.4-0.2,0.9-0.4,1.3-0.5c0.1,0,0.2,0,0.3,0c-0.1,0.6-0.3,1.2-0.4,1.8
		c-0.3,0.8-0.6,1.3-0.8,2.1c0,0.1,0,0.5,0,0.7c-0.2,1-0.9,3,0.2,3.7c0.7,0,1.3-0.1,2-0.1c0-0.3-0.1-0.4,0-0.4s0.2-0.2,0.3-0.2
		c0-0.2-0.1-0.6,0.4-0.6c-0.2,0.2,0,0.6-0.2,0.8c0.5-0.2,0.5-0.7,0.5-1c0,0,0.1,0,0.1,0c0,0-0.1,0-0.1,0c0-0.2,0.1-0.2,0.1-0.4
		c0.1,0,0.2-0.1,0.1,0.2c0,0.2,0,0.2-0.1,0.3c0,0,0,0,0,0.1c0,0.1,0,0.4,0,0.4c0.2-0.2,0.3-1.3,0.7-1.5c0,0.2,0,0.4,0.1,0.5
		c-0.2,0.4-0.3,0.8-0.3,1.2c0.3-0.1,0.2-0.3,0.5-0.4c0-0.5,0.3-1,0.3-1.4c0.3-0.5,0.4-1.1,0.5-1.7c0.1-0.3,0.4-0.4,0.4-0.5
		s-0.1-0.2,0-0.4c0.1-0.2,0.2-0.4,0.1-0.5c0.2-0.1,0.1-0.5,0.4-0.5c0,0.1,0,0.3-0.1,0.4c0.1,0,0.1,0,0.1,0.1
		c-0.3,0.1-0.1,0.6-0.4,0.9c0,0.1,0,0.2,0,0.2c0,0.1,0,0.2-0.1,0.2c0,0.9-0.6,1.5-0.6,2.2c0,0.1-0.1,0.2,0,0.2s0.2-0.2,0.2-0.4
		c0-0.3,0.1-0.5,0.3-0.7c0.2-0.1,0.2-0.1,0.2-0.2c0-0.3,0-0.5,0.1-0.6c0.1-0.1,0-0.4,0.1-0.4c0.1-0.7,0.6-1.1,0.6-1.8
		c0,0,0-0.1,0.1-0.1c0-0.6,0.2-1.1,0.5-1.6c0.3-0.4,0.3-1,0.4-1.2c0-0.3,0.4-0.4,0.4-0.7c0-0.1,0.1-0.2,0.1-0.4c0-0.1,0-0.2,0-0.3
		c0.2-0.4,0.5,0.2,0.5-0.2c0.2-0.3,0.4-0.6,0.6-1c0.1-0.2,0.2-0.4,0.3-0.6c0.2-0.5,0,0.4-0.3,1.1c0.2-0.3,0.3-0.6,0.4-0.9
		c0.7-1.2,0.7-0.9,1.3-2.1c0.2-0.5,0.5-1,0.8-1.5c0.3-0.4,0.4-1.1,0.8-1.8c0.1-0.1,0.2-0.3,0.2-0.4l0.5-0.8c0.2-0.2,0.2,0.6,0.4,0.8
		c0.2,0.7,0.4,1.4,0.5,2.2c0.3,0.4,0.4,0.9,0.5,1.5c0.2,0.7,0.4,1.5,0.5,2.3c0.8,2.6,0.3,2.7,1.3,5c0.2,0.6,0.5,1.3,0.7,1.9
		c0.1,0.4,0.1,0.7,0,1.1c-0.1,1,1.1,2.5,1.6,3.3c0.4,0.3,0.9,0.5,1.3,0.4c0.9,0.2,1.8,0.3,2.7,0.4c0.1,0,0.3-0.1,0.4-0.1
		c0.9-0.4,0.5-1.2,0.8-2.1c0.1,0,0.2,0,0.4-0.1c0,0,0,0,0,0c-0.3-0.3-0.3-0.7,0-0.9c0.2,0.2,0.2,0.5,0.5,0.5c-0.1-0.1,0-0.2,0-0.2
		c0.2-0.1,0.4,0.2,0.4,0.1c0.1-0.3-0.1-0.7-0.3-0.9c0.2-0.1,0-0.3,0-0.5c0.1,0,0.3,0,0.4,0c0-0.3,0-0.5-0.1-0.8c0.1-0.7,0.1-1.3,0-2
		c0.2-0.6,0.2,1,0.2,0.2c0.2-0.3,0.3-0.6,0.4-1c0.1,0,0.2,0,0.2-0.1c-0.2-0.1,0.2-0.2,0.2-0.4c0-0.2,0-0.2,0-0.4
		c0.3,0,0.2-0.3,0.5-0.5c0-0.7,0.7-1,0.7-1.9c0.3-0.5,0.4-0.8,0.7-1.1c-0.1-0.2,0.2-0.7,0.2-1c0,0,0.1-0.2,0.2-0.2
		c0.3-1.1,0.7-0.9,1-2c0.1,0,0.1-0.2,0.1-0.2c-0.1-0.3-0.1-0.4,0.2-0.6c0.2-0.2,0.1-0.4,0.2-0.6c0-0.1,0.2-0.2,0.2-0.2
		c0.1-0.3,0-0.5,0.1-0.8c0.1-0.3,0.4-0.5,0.4-0.9h-0.2c0.1-0.1,0.2-0.2,0.1-0.2c0.2,0,0.4-0.2,0.4-0.4c-0.2,0,0.1-0.2,0-0.4H75
		c-0.3-0.1-0.2-0.5,0-0.5c0.2-0.3,0.6-0.6,0.5-1.1c0.3-0.4,0.4-1.1,0.8-1.6c0,0,0,0,0-0.2c1-0.8,0.6-1.7,1.5-2.7
		c0.3-0.5,0.6-1,0.8-1.5c0.1-0.3,0.3-0.6,0.5-0.9c0.1,0,0.2,0.1,0.2,0.2c0,0,0.1-0.2,0.1-0.2c0.5,0.2,1.1,0.3,1.6,0.2
		c0.2,0,0.3,0,0.5,0c-1.8,5.1-3.8,10.8-5.8,16c-0.1,0.5-0.2,1-0.4,1.4c-0.3,0.8-0.7,1.6-1.1,2.6c-0.2,0.7-0.3,1.6-1.1,1.8
		c-1.3,0.8-2.3,2-3,3.3c-0.1,0.4,0,0.9,0.3,1.2c0.1,0,0.3,0,0.4,0c0,0,0,0,0,0c0.1-0.2,0.4-0.3,0.7-0.2c-0.1,0.1-0.1,0.2,0,0.2
		c0.2,0.1,0.4,0.2,0.6,0.1v0.4c0.8,0.6,0.6,1.6,1,2.7c0.8,0.2,0.2,0.1,0.7-0.4c0,0,0.1,0.2,0.2,0.2c0.7,0,0.9-0.5,1.2-0.6
		c0.2-0.5,0.3-1.1,0.5-1.7c0.5,0.4,0,1.3,0.1,1.8c0.3-0.2,0.4-0.9,0.5-1.3c0.1,0.3,0.1,0.6,0,0.9c0.3,0.1,0.5-0.2,0.8-0.5
		c0,0,0,0.1,0.3,0c0.8-1,1.5-2.1,1.9-3.3c0,0,0,0,0,0.1c-0.1,0.5-0.4,1.9-0.4,1.7c0,0,0,0.1,0.1,0.2c0,0.1,0,0.2,0,0.2
		c0.6-0.4,1.2-0.8,1.8-1.1c0,0,0,0.1,0,0.1c0.2,0,0.5-0.2,0.4-0.3c-0.1,0.1-0.3,0.1-0.4,0.2c0-0.1,0.5-0.3,0.3-0.3
		c-0.3,0.1-0.6,0.5-1.1,0.3c-0.1,0.2-0.1,0.3-0.2,0.4c-0.1,0-0.2-0.1-0.2-0.3c0,0,0,0,0,0c0,0,0,0,0,0c0-0.1,0-0.2,0-0.2
		c0.5-0.3,1-0.6,1.6-0.9c0,0,0,0,0.1-0.1c0,0,0,0,0,0l0.2-0.1c0,0,0,0-0.1,0c0.1-0.1,0.2-0.2,0.2-0.1c0-0.2,0.3-0.3,0.3-0.2
		c0,0.1-0.2,0.1-0.2,0.2c0.4-0.2,0.6-0.6,0.9-0.8c0,0.1,0,0.1,0,0.2l0,0c0-0.2,0-0.2,0-0.2c0.1-0.1,0.2-0.1,0.3-0.1v-0.1
		c0.2,0.2,0.2-0.2,0.5-0.2l0,0.1c0-0.3,0.4-0.2,0.5-0.3c0.1,0,0.2-0.1,0.2-0.2c0.3-0.3,0.7-0.5,1.2-0.5c-0.1,0.1-0.3,0.4-0.5,0.2
		c-0.1,0.2-0.1,0.4-0.3,0.4c-0.4,0.3-0.8,0.5-1.2,0.6c-0.3,0.1-0.6,0.3-0.8,0.5c-0.2,0.2-0.5,0.4-0.8,0.5c0,0.1-0.1,0.3-0.3,0.3
		c0,0.1,0,0.2-0.1,0.2c-0.4,0.1-0.5,0.1-0.7,0.3c0.2,0.1,0.7-0.2,0.8-0.4c0.1,0,0.2-0.1,0.3-0.2c-0.3,0.4-0.8,0.5-1.2,0.8l0.4-0.1
		c0.9-0.4,1.8-1.2,2.7-1.4C84,41,84,40.9,84,40.8c0.4-0.1,0.7-0.3,1-0.5c-0.1,0.1,0-0.1-0.1-0.1c-0.1,0-0.3,0.2-0.4,0
		c1.1-0.2,2.4-1.3,3.4-1.8c0.1,0,0.1,0,0.1,0c0.1-0.4,0.3-0.4,0.5-0.5V38c0.1-0.1,0.4-0.1,0.6-0.4c-0.1,0.1-0.4,0.1-0.4-0.1
		c0.3-0.1,0.5-0.2,0.7-0.3c0.6-0.3,0.9-1,1.3-1c0.5-0.2,1-0.5,1.4-0.8c0,0.1-0.1,0.1-0.1,0.1s0.2-0.1,0.2,0
		c-0.4,0.3-0.8,0.5-1.2,0.7c0.1,0.1,0,0.1,0,0.2c-0.4,0.2-0.8,0.5-1.2,0.7c0,0.1-0.1,0.1-0.1,0.3c0.6-0.3,1.2-0.7,1.7-1.2
		c0.2,0,0.3,0,0.5-0.1c0,0,0,0,0,0l0,0c0,0,0-0.1,0-0.1c0.5-0.2,0.7-0.6,1.2-0.8c0-0.5,0.7-0.3,0.8-0.6c-0.1,0-0.2,0.2-0.4,0.1
		c0.6-0.6,1.2-0.5,1.7-1.3c0,0,0,0,0.1,0c0.1,0,0.3-0.1,0.3-0.2c-0.5,0,0,0.1-0.3,0.1c-0.1-0.3,0.2,0,0.3-0.3c0.3-0.1,0.6-0.7,1-0.7
		c1.2-0.9,1-1,2.3-2.1C99.1,29.8,99.4,29.4,99.7,29.2z M46.3,34.2V34c0,0,0,0,0.1,0C46.3,34.1,46.3,34.1,46.3,34.2
		c0,0.1-0.1,0.2-0.1,0.3H46C46.2,34.5,46.2,34.2,46.3,34.2z M47.8,42.9L47.8,42.9c0-0.1,0.2-0.2,0.2-0.1
		C48,42.9,47.9,42.9,47.8,42.9z M50.8,36.1H51h0.1c-0.1,0.1,0,0.3-0.4,0.4C50.8,36.3,50.7,36.3,50.8,36.1z M50.6,36.7h0.2
		C50.8,36.8,50.8,36.8,50.6,36.7L50.6,36.7z M50.5,38.8c0-0.3,0-0.9,0.4-0.9h0C50.7,38.2,50.6,38.6,50.5,38.8z M50.6,37.7
		C50.6,37.7,50.6,37.7,50.6,37.7l0.1-0.1c0,0.1,0,0.1,0,0.1H50.6z M51.1,36.9c0,0.2,0,0.4-0.1,0.4c0,0.2-0.1,0.1-0.2,0.2
		c-0.2,0,0-0.1,0.1-0.2v-0.1c-0.2-0.1-0.2,0-0.2,0c0,0,0,0.1,0,0.1s0,0.1-0.1,0.1c0-0.2,0.1-0.5,0.1-0.5c0,0,0.2,0.1,0.2,0.1l0,0
		c0.2,0.1,0.1-0.2,0.2-0.3V36.9z M51,36.5v-0.1h0.1c0,0,0-0.1,0-0.1c0,0,0.1,0,0.1,0C51.1,36.3,51.2,36.5,51,36.5z M51.3,34.8
		c-0.1,0.2-0.1,0.5-0.2,0.6C51.2,35.3,51.4,35.2,51.3,34.8c-0.2-0.1,0,0,0.1-0.1C51.5,34.8,51.3,34.8,51.3,34.8z M51.6,34.6
		c-0.2-0.1,0-0.1,0-0.1V34.6z M69.7,30c0,0.4-0.3,0.7-0.5,1.2c0.1-0.5,0.3-0.8,0.3-1.3l0.1,0c0.1,0,0.1-0.2,0.1-0.2
		c0-0.4,0.2-0.6,0.5-1C70.1,29.1,69.9,29.6,69.7,30z M70.2,28.5c0-0.3,0.1-0.6,0.4-0.7l0.1,0C70.7,28,70.6,28.5,70.2,28.5z M91.8,36
		C91.8,36,91.8,36,91.8,36C91.8,36,91.8,36,91.8,36C91.8,35.9,91.8,35.9,91.8,36C91.8,35.9,91.8,35.9,91.8,36z M79.2,43.4
		C79.2,43.4,79.2,43.4,79.2,43.4c0-0.1,0-0.2,0-0.3c0,0,0,0,0,0C79.3,43.2,79.2,43.3,79.2,43.4z M83.5,40c-0.1,0-0.1,0-0.2-0.1
		c0,0,0,0.1,0,0.1c-0.3-0.2-0.6,0.5-0.8,0.4c-0.2,0-0.4,0.1-0.4,0.1s0,0.1,0,0.3c0,0,0,0-0.1-0.1c0,0,0,0.1,0,0.1
		c-0.1-0.3-0.2,0.3-0.3,0.1v0.1c0,0.2,0,0.1,0,0.2c-0.4,0.3-0.8,0.6-1.3,0.7c0,0,0-0.2-0.2-0.1c-0.1-0.1,0.1-0.3,0.1-0.3
		c0.2-0.1,0.4-0.3,0.6-0.4c0.5-0.4,1.1-0.7,1.7-1c0.3-0.4,0.9-0.5,1.3-0.8c0.1-0.2,0.3-0.1,0.3-0.2c0-0.1,0.1-0.2,0.2-0.3
		c0.5,0,0.9-0.5,1.2-0.5C85.2,39.2,84.2,39.4,83.5,40z M96.9,23.7c-1,1.4-2.2,2.7-3.6,3.6c-3.5,3.2-8.2,5.8-12,8.6
		c0-0.5,0.6-0.9,0.7-1.3c0.1-0.4,0.2-0.7,0.4-1.1c0-0.4,0.1-0.8,0.3-1.1c0.3-0.2,0.4-0.5,0.5-0.9c0,0,0-0.3,0.1-0.2
		c0.2-1,0.6-1.9,1-2.9c0.3-1.2,0.7-2.3,1.2-3.4c0.2-1,1.5-3.8,2-4.8c0.3-0.6,0.5-1.2,0.7-1.8c0.2-0.3,0.4-0.7,0.6-1.1
		c0.2-0.5,0.5-1,1-1.3L90,16c2.7-0.7,5.6-0.5,8.3,0.5c0.4,0.2,0.3,0.7,0.7,0.8c0.1,0,0,0.6,0.1,0.7c0,0.1,0,0.1,0.1,0
		c0,0.2,0.1,0.5,0,0.7c0,0.2-0.1,0.5-0.1,0.7c-0.2,0.3-0.3,0.6-0.3,0.9C98.2,21,97.2,23.2,96.9,23.7z"/>
	<path class="st0" d="M82.1,42.6c0.2,0,0.3-0.2,0.6-0.3c0-0.1,0-0.2,0-0.2l0,0c0.4,0,0.8-0.3,1.1-0.6C83.1,41.7,82.5,42.1,82.1,42.6
		z"/>
	<path class="st0" d="M118.4,6.3c0.2-0.1,0.5-0.3,0.7-0.4c0.2-0.2,0.4-0.3,0.6-0.3c0-0.1,0.1-0.2,0.2-0.2c0.5-0.3,0.9-0.5,1.4-0.9
		c1-0.8,2.1-1.5,3-2.2c0-0.1,0.1-0.3,0.1-0.3c0,0,0.1-0.1,0.2-0.1c0.2-0.2,0.5-0.5,0.4-0.6c-0.1-0.1-0.2-0.1-0.2-0.3
		c-0.3-0.2-0.6-0.4-0.9-0.6c-0.3-0.2-0.6-0.6-1.2-0.5c-0.2,0.1-0.4,0.1-0.6,0.1c-0.2,0.3-0.5,0.6-0.6,0.8c0,0-0.1,0-0.2,0.1
		c-0.4,0.4-0.8,0.7-1.3,1.1c-0.2,0.1-0.5,0.5-0.8,0.7s-0.4,0.5-0.5,0.7c-0.2,0.1-0.4,0.3-0.5,0.5c-0.1,0.2-0.2,0.5-0.3,0.6l-0.2,0.1
		c0.1,0.2,0.1,0.2,0,0.3c-0.1,0,0,0-0.1,0.2s-0.9,0.5-0.9,0.9c0.1,0.1,0.1,0.3,0.1,0.5C117.3,6.9,118,6.5,118.4,6.3z"/>
	<path class="st0" d="M159.8,45.1c-0.1,0-0.2,0-0.3,0.1C159.5,45.2,159.6,45.2,159.8,45.1z"/>
	<path class="st0" d="M159.5,45.3v0.1c0.1,0,0.2,0,0.3,0C159.7,45.3,159.7,45.3,159.5,45.3z"/>
	<path class="st0" d="M164.1,42.2C164.1,42.2,164.1,42.2,164.1,42.2C164.1,42.2,164.1,42.2,164.1,42.2
		C164.1,42.2,164.1,42.2,164.1,42.2z"/>
	<path class="st0" d="M165.9,40.8c0.6-0.3,1.5-0.4,2.4-0.9C167.5,40.1,166.7,40.4,165.9,40.8L165.9,40.8
		C165.9,40.7,165.9,40.7,165.9,40.8z"/>
	<path class="st0" d="M159.5,45.1c0.1-0.1,0.1,0,0.3,0l0,0l0-0.1C159.5,44.7,159.5,44.8,159.5,45.1z"/>
	<path class="st0" d="M163.1,42.3c0.2-0.1,0.6-0.4,1-0.1c0.2,0,0.4-0.1,0.5-0.4c0,0-0.3-0.1-0.1-0.1c0.1,0,0.3,0.1,0.2,0
		c-0.1-0.1-0.1-0.1-0.1-0.1l0.2-0.1c0.2,0.1,0.3,0,0.5-0.1c0.4-0.1,0.7-0.2,1.1-0.4c-0.4,0.2-0.8,0.2-1.1,0.3c-0.4,0-0.4,0-0.5,0.1
		c-0.7,0.2-1.4,0.5-2.1,0.7c-0.5,0.3-1,0.6-1.6,0.7c-0.2,0-0.4,0.1-0.5,0.2c-0.5,0.2-0.8,0.5-1.1,0.4c-0.2,0.4-0.5,0.6-0.8,0.5
		c-0.3,0.4-0.6,0.2-1,0.4c-0.1,0-0.2,0.1-0.2,0c-0.1,0.1-0.2,0.1-0.3,0.2c0.1,0,0.2,0,0.2,0c0.2-0.2,0.4-0.2,0.7-0.2
		c0.2,0,0.5-0.1,0.7-0.3c0.3-0.2,0.7-0.3,1-0.4c0.5-0.4,1.1-0.8,1.4-0.7C161.9,42.8,162.4,42.5,163.1,42.3z M164.6,41.6
		c0,0-0.2,0.2-0.2,0.1L164.6,41.6z M159,44.1c0.2-0.1,0.3-0.2,0.4-0.2L159,44.1z"/>
	<path class="st0" d="M159,45.1l0.2-0.1C159.1,45,159.1,45,159,45.1z"/>
	<path class="st0" d="M156.8,45.1l1.2-0.6l-0.8,0.2C157,44.6,156.8,45.1,156.8,45.1z"/>
	<path class="st0" d="M156,45.1c0.2-0.2,0.5-0.1,0.8-0.5C156.5,44.9,156.2,44.8,156,45.1z"/>
	<path class="st0" d="M156,45.3c0.1-0.2,0.3-0.1,0.5-0.2C156.3,45.1,156.1,45.1,156,45.3z"/>
	<path class="st0" d="M169.6,39.6C169.6,39.6,169.6,39.6,169.6,39.6L169.6,39.6C169.6,39.6,169.6,39.6,169.6,39.6
		C169.6,39.6,169.6,39.6,169.6,39.6z"/>
	<path class="st0" d="M157.2,44.3c0,0.1,0,0,0.1,0H157.2z"/>
	<path class="st0" d="M158.3,44.4L158.3,44.4C158.4,44.4,158.3,44.4,158.3,44.4z"/>
	<path class="st0" d="M158.4,44.4L158.4,44.4l0.6-0.2C158.8,44.3,158.6,44.3,158.4,44.4z"/>
	<path class="st0" d="M159.5,45.1c-0.2,0.1-0.3,0.1-0.5,0.1c0,0,0,0,0.1-0.1l-0.1,0.1c0,0,0,0-0.1,0l0,0l-0.2,0.1
		c0.1,0,0.1,0,0.2-0.1l0,0.1C159,45.3,159.2,45.1,159.5,45.1z"/>
	<path class="st0" d="M158.1,44.5h0.2c0,0,0-0.1,0-0.1C158.2,44.5,158,44.5,158.1,44.5L158.1,44.5z"/>
	<path class="st0" d="M158.3,44.4C158.3,44.4,158.3,44.4,158.3,44.4L158.3,44.4C158.3,44.4,158.3,44.5,158.3,44.4z"/>
	<path class="st0" d="M160.9,44.6L160.9,44.6C161,44.6,160.9,44.7,160.9,44.6c0.1,0,0.2,0,0.2,0H160.9
		C161,44.5,160.9,44.6,160.9,44.6z"/>
	<path class="st0" d="M170.3,41.1L170.3,41.1h0.3C170.5,41,170.4,41,170.3,41.1z"/>
	<path class="st0" d="M171.7,40.6c0.3-0.2,0.6-0.2,0.6-0.4h0C172.2,40.4,171.9,40.3,171.7,40.6z"/>
	<path class="st0" d="M170,41.3c0,0.1,0.3,0.1,0.5-0.1C170.3,41.3,170,41.2,170,41.3z"/>
	<path class="st0" d="M173,40.3L173,40.3C173,40.3,172.9,40.3,173,40.3C172.9,40.3,172.9,40.3,173,40.3z"/>
	<path class="st0" d="M172.9,40.3C172.9,40.3,172.9,40.4,172.9,40.3C172.9,40.4,172.9,40.3,172.9,40.3z"/>
	<path class="st0" d="M165.9,42.6c0,0-0.1,0.1-0.1,0.1C165.8,42.7,165.9,42.6,165.9,42.6L165.9,42.6z"/>
	<path class="st0" d="M165.8,43.1c0-0.1,0.3-0.2,0.3-0.2l0.1-0.2c-0.2,0-0.4,0.3-0.6,0.4C165.8,43.1,165.8,43.1,165.8,43.1z"/>
	<path class="st0" d="M166.4,42.7c0.3,0,0.3,0,0.3-0.1h0C166.8,42.4,166.7,42.8,166.4,42.7z"/>
	<path class="st0" d="M165.8,43.1C165.8,43.2,165.9,43.1,165.8,43.1L165.8,43.1z"/>
	<path class="st0" d="M165.6,42.7c0.1,0,0.1,0,0.2,0C165.7,42.7,165.6,42.7,165.6,42.7z"/>
	<path class="st0" d="M172.8,40.4C172.8,40.4,172.8,40.4,172.8,40.4C172.8,40.4,172.8,40.4,172.8,40.4z"/>
	<path class="st0" d="M170.6,40.5c0,0,0.1,0,0.1,0C170.6,40.5,170.6,40.5,170.6,40.5z"/>
	<path class="st0" d="M172.8,40.4C172.8,40.4,172.8,40.4,172.8,40.4C172.8,40.4,172.8,40.4,172.8,40.4z"/>
	<path class="st0" d="M164.8,42.6L164.8,42.6C164.8,42.5,164.7,42.6,164.8,42.6C164.7,42.6,164.7,42.6,164.8,42.6z"/>
	<path class="st0" d="M167,41.8C167.1,41.7,167.1,41.7,167,41.8C167,41.7,167,41.8,167,41.8z"/>
	<path class="st0" d="M168.5,40h0.2c0.1,0,0.1,0,0.1-0.1l0.1,0.1l0,0.1c0.2-0.2,0.4-0.3,0.6-0.4c0,0,0.1,0,0.1,0c0,0-0.1,0-0.1,0
		c0,0,0.1,0,0.1,0c0,0,0,0,0-0.1l0,0c0.3-0.2,0.7-0.3,1.1-0.6c-0.7,0.2-1.4,0.5-2,0.9l0,0C168.7,39.8,168.5,40,168.5,40z"/>
	<path class="st0" d="M167.1,41.7c0,0,0-0.1,0.1-0.1h0C167.1,41.6,167.1,41.6,167.1,41.7z"/>
	<path class="st0" d="M178.1,38.3c1.1-0.4,1.4-0.7,2.5-1.2c0.4-0.1,0.9-0.3,1.2-0.6c1.2-0.6,2.1-1,2.6-2.3c0.2-0.3,0.3-0.5,0.3-0.8
		c0-0.4,0-0.7,0-1.1c0-0.3-0.1-0.4,0-0.9c-0.1-0.1,0-0.3,0-0.5c0.1-0.5,0-0.7,0-0.9c0.5-1.7-1.1-2.5-2.1-3.5c-0.2,0-0.4-0.2-0.8-0.4
		c0.1,0,0.2,0,0.3,0c-0.2-0.1-0.4-0.2-0.4-0.1c0,0.1,0,0.1,0,0.1c-0.1,0-0.3,0-0.4,0c-1.9-0.4-3.8-0.6-5.7-0.6
		c-0.7,0-1.4-0.1-2.2-0.1c-1,0.1-2,0.2-2.9,0.2c-0.5,0-1,0-1.6,0c-3-0.2-7.7,0.7-3.5-1.9c0-0.1,0-0.1,0.1-0.2
		c0.8-0.7,1.7-1.3,2.6-1.8c0.2-0.2,0.3-0.3,0.5-0.3c2-1,3.3-1.9,5.3-2.7c0.5-0.3,1.1-0.5,1.7-0.5c0.1,0,0.2-0.1,0.4-0.1
		c0.5-0.3,1.2-0.3,1.7-0.1c-0.7,1.1-1.2,2.2-1.7,3c0.1,0.3-0.2,0.4-0.3,0.5c-0.1,0.5-0.1,0.9,0.1,1.4c0.3,0.4,0.9,0.1,1.2,0.4
		c0.3,0.1,0,0.3,0.3,0.5c0-0.1,0.3,0.1,0.5,0.1c0.8,0.5,1.4,0.8,2.1,0.2c0.3-0.2,0.6-0.5,0.7-0.9c0.3-0.3,0.5-0.6,0.7-1
		c0.4-0.6,0.8-1.3,1.1-2c0.7-1.1,1.3-2.2,1.8-3.5c0-0.1,0-0.1,0-0.1c1-1.2,1.1-3.3,0.3-4.1c-0.3-1-0.8-2-1.4-2.9c0,0-0.2,0-0.3,0
		c0.2-0.6-0.3,0-0.3-0.4c-0.1,0-0.1-0.2-0.3-0.1s-0.6-0.2-0.7,0c-2.6,0.6-5.2,1.5-7.6,2.6c-1.8,0.7-2.7,1.5-4.5,2.4
		c-0.7,0.3-1.3,0.6-1.9,1c-0.3,0.2-0.6,0.4-0.9,0.6c-0.6,0.3-0.2,0.2-0.6,0.4c-0.1,0,0,0.1-0.1,0.1c0,0.1,0-0.1-0.2,0.2
		c-2.1,1-2.9,2.3-4.9,3.7c0,0.2-0.1,0.2-0.1,0.2c-1,0.7-1.8,2-2.6,3.2c-0.4,0-0.7,0-1.1,0h-0.4c-0.4,0.2,0.3,0.2,0.7,0.2
		c-0.2,0-0.4,0-0.6,0.1c-1.2,0.3-1.4,0.2-2.5,0.5l-1.5,0.2c-0.1,0.1-0.3,0.2-0.5,0.2c-0.9,0.1-1.8,0.4-2.7,0.7
		c-0.2,0-0.5,0.1-0.6,0.2l-0.7,0.2c-0.3,0-0.5,0-0.8,0.1c-0.2,0-0.2,0.1-0.4,0.1l-0.9,0.3l-2.1,0.9l-1.3,0.5
		c-1.3,0.5-2.6,1.1-3.8,1.8c-0.1,0-0.3,0-0.4,0.1c-0.2,0.1-0.3,0.2-0.5,0.4c0,0.2-0.2,0.4-0.4,0.5c-0.2,0.1,0.2,0.3,0.2,0.6v0.1v0.2
		c-0.1,0.2,0.1,0.3,0.1,0.4c0,0.1,0.5,0.1,0.1,0.4c0.2,0,0.4,0.1,0.5,0.2c0.6,0.2-0.1,0.3,0.4,0.4c0.1,0,0.2,0,0.3,0
		c0.6,0.2,1.3,0.2,1.9,0.1c0.2,0,0.3,0,0.5,0c0.1,0,0.5-0.1,0.6-0.1l1-0.5c0.3,0,0.6-0.4,1.1-0.4l1.4-0.4c0,0-0.2,0.1-0.1,0.1
		c-0.1,0-2,1.7-2.4,2c-1,0.7-1.8,1-2.8,1.6c-1.4,0.7-2,1.3-3.8,1.7c-0.9,0.2-1.7,0.3-2.6,0.1c-0.6-0.1-1.1-0.4-1.2-0.8
		c-0.1,0-0.2-0.1-0.2-0.1c0-0.1-0.1-0.3,0-0.4c-0.2-0.2,0-0.4,0-0.5v-0.4c0.1-1,0.4-1.9,0.8-2.8l0.2-0.4c0.1-0.1,0.4-0.3,0.3-0.6
		c0,0-0.1,0.1-0.1,0l0.5-0.5h-0.3l0.3-0.2c0-0.1,0.1-0.2,0.2-0.2V30c0.1-0.3,0.2-0.4,1.5-2.3h0.2l0.4-0.7c0.1,0,0.1-0.1,0.2-0.2
		c0.2-0.2,0.2-0.4,0.2-0.4c0,0,0.2-0.3,0.2-0.4c0.7-0.5,1.4-1.1,1.9-1.8c0.6-0.8,1.3-1.6,2.2-2.2c0.3-0.4,0.6-0.8,0.9-1.2
		c0.1,0,0.3,0,0.3-0.2c0.5-0.1,0.6-0.5,0.7-0.7l0.3-0.4l0.7-0.5c0.2-0.2,0.2-0.3,0.2-0.3c0-0.1,0.1-0.1-0.2,0.1c1-0.8,2-1.5,3-2.2
		l0.1-0.1c0,0,0.1,0,0.2-0.1c0.3-0.1,0.5-0.1,0.5-0.3c0,0,0,0,0.1-0.1l0.3-0.3c0.1-0.1,0.5-0.2,0.5-0.3c0.3-0.1,0.5-0.2,0.8-0.2
		L150,15c-0.3,0.6-0.9,1.6-1.1,2c0,0.2-0.1,0.3-0.3,0.4l-0.6,1.1c-0.1,0.3-0.3,0.6-0.5,0.8l-0.4,0.5c-0.2,0.2-0.3,0.5-0.3,0.7
		c-0.1,0.6,0.2,1.2,0.7,1.4c0.8,0,1.6-0.1,2.3-0.3c0.1-0.1,0.2-0.2,0.4-0.2l0.4-0.1c0.1,0.2,0.1,0.2,0.1,0.2l0.7-0.2
		c0,0,0.1,0,0.1,0l0.2-0.1l0.2-0.1h0.5c0,0,0,0,0,0c0.2,0,0.3-0.2,0.3-0.4c0,0,0.2-0.1,0.2-0.2c0.2-0.3,0.3-0.6,0.4-0.9h0.3v-0.3
		l0.2-0.2v0c0.2-0.1,0.3-0.2,0.4-0.4c0.3-0.3,0.6-0.7,0.7-1.1c0.2-0.6,0.7-0.9,1-1.3l0.8-0.8c0.2-0.3,0.4-0.6,0.6-0.8v-0.2
		c0.5-0.9,1.1-1.9,0.6-2.9c0-0.4-0.1-0.7-0.4-0.9c0,0-0.3-0.6-0.5-0.9l-2.6-1.8L154,8c-0.2-0.3-0.4-0.1-0.9-0.3
		c-0.6-0.2-1.2-0.2-1.8-0.2c-0.3,0.1-0.6,0.2-0.9,0.3c-1.3,0-0.9,0.3-2,0.6c0.1,0-0.4,0.2-0.6,0.3h0.1c-0.2,0-0.4,0.1-0.5,0.1
		c-0.2,0-0.4,0.1-0.5,0.2l-0.5,0.3c-0.5-0.2-3.7,2.4-4.4,2.8c-0.3,0.2-0.6,0.4-0.8,0.6c-3.2,2.3-6.2,5-8.7,8.1l-1.1,1.3
		c0,0-1.2,1.5-1.2,1.4c-1.9,2.7-3.5,5.5-4.7,8.6c-0.1,0.1-0.1,0.3-0.1,0.4c-0.6,0-1.2,0-1.5,0c-1,0.2-1.8,0.3-2.4,0.5l-1.2,0.4
		c-1,0.3-2,0.6-3.1,1l-2.5,0.8l-3.6,1.3L110,37c-0.8,0.3-1.4,0.6-2,0.7c-0.6,0.2-0.8,0.1-1.4,0.3c-0.8,0.3-1.2,0-0.9-1
		c0-0.3,0,0,0-0.3c0-0.5,0.2-0.9,0.4-1.3l1.3-3.1l0.3-0.6c0.2-0.5,0.4-1,0.7-1.5c0.3-0.1,0.7-0.2,1-0.2c0.4,0.1,0.8,0,1-0.3
		c0.3-0.1,0.5-0.1,0.8-0.2l1.1-0.2c0.3-0.1,0.6-0.1,0.9-0.1c0.5-0.2,0.7-0.2,0.9-0.3c0.6-0.1,1.2-0.2,1.8-0.5l0.5-0.4
		c0.6-0.2,1.3-0.4,1.9-0.4l0.8-0.2c0.4-0.2,0.9-0.3,1.3-0.3c0.3-0.1,0.6-0.1,0.8-0.1c0.4,0,0.7-0.1,1-0.3v-0.3
		c0-0.1,0.2-0.1,0.2-0.3l0.4-0.2c-0.1-0.1,0.1-0.2,0.2-0.2s0.3-0.1,0.3-0.1c0.6-0.3,0.7-0.7,0.3-0.9c0,0-0.1,0-0.1,0
		c0.4,0,0.2,0-0.6,0h-0.4c0-0.2,0-0.5,0.2-0.7c0.1,0,0.2,0,0.2-0.1s0.1,0,0.1,0l0.4-0.3v0.1l0.6-0.4l0.2-0.2c0-0.1,0-0.2,0-0.4
		l0-0.3c-1.3-0.2-2.5-0.2-3.8,0.1l-1,0.1c-2.7,0.3-5.4,0.8-8,1.5c0.7-1.4,2.5-3.3,3-4.7c0.1-0.1,0.1-0.1,0.1-0.1s0.1-0.1,0-0.1
		l0.1-0.1c0.1-0.7,0.9-0.8,1.4-1l0.4-0.1c0.3,0,1-0.4,1.8-0.7l1.2-0.5c0.2-0.1,0.4-0.1,0.7-0.2l0.7-0.1c0.2,0,0.3,0,0.5-0.1
		c0.3-0.1,0.6-0.1,0.8-0.2c0.3-0.1,0.4,0,0.6,0c0.2,0,0.2-0.2,0.4-0.2c0.1-0.1,0.2-0.1,0.4,0c0.3-0.1,0.7-0.1,1-0.1
		c0.5,0,1.1-0.2,1.4-0.5l0.4-0.2c0,0,0.1,0,0.1,0l0.2-0.2c0.2-0.2,0.3-0.5,0.3-0.8c0.2,0,0.2-0.1,0.2-0.3l0.1-0.1h0.2
		c0.1-0.4,0-0.6,0.8-0.5c-0.5-0.6-0.5-1.2,0.5-1.8c0.5-0.7,0.1-0.9-0.5-0.9h-0.3c-0.7-0.1-1.4-0.2-2.1-0.2c-2.8,0-5.6,0.3-8.4,1.1
		l-2.8,0.5c0.3,0.3-0.6-0.4-0.8-0.5c-0.2-0.2-0.4-0.4-0.6-0.6l-0.3-0.1c0,0-0.2-0.1-0.4-0.1h0.1c-0.4-0.3-0.8-0.2-1.2,0.1l-0.6,0.7
		c-0.4,0.4-0.6,0.8-0.8,1.3c-1.1,2.2-2.6,4.2-3.6,6.5c-1.1,1.9-2.2,4-3.1,6.2l-0.7,1.6c0,0.1-0.1,0.3-0.2,0.3c0,0,0,0.2,0,0.2
		c-0.2,0.5-0.4,1-0.7,1.5c-0.9,2.5-1.7,5-2.4,7.6l-0.1,0.4c-0.1,0.2-0.2,0.5-0.2,0.8l-0.7,2.5c-0.1,0.8-0.3,2.6,0.5,2.9
		c0.5,0.6,0.3,0.9,0.6,1c0.3,0.1,0.6,0.2,0.8,0.4c0.2,0.2,0.4,0.3,0.6,0.3c0.1,0.2,0.4,0.3,0.5,0.4l0.3-0.1l0.5,0.1
		c0.9,0.3,1.9,0.2,2.7-0.2c0.4-0.1,0.8-0.4,1.1-0.7l1.1-0.5h0.4c0.3-0.1,0.9-0.1,1.1-0.4l2.1-0.9c0.1-0.1,0.2-0.1,0.4-0.1
		c0.4-0.2,0.4-0.2,0.5-0.2c0.2,0,0.4,0,0.5,0l0.2-0.2c0.3-0.1,0.5-0.2,0.8-0.2c0.1-0.3,0.3-0.5,0.6-0.5l0.7-0.2c0.1,0,0.1,0,0.2,0
		c0.3-0.1,0.7-0.2,1-0.3l-0.1-0.1c0.5-0.3,1-0.5,1.5-0.6l0.6-0.1h0.2c0.1,0,0.2,0.1,0.6-0.4c0.1-0.1,0.3-0.2,0.3-0.2l2.4-1.1
		l-0.1-0.2l0.3-0.1c0,0,0.1,0,0.1,0V38c0,0,0,0,0.1,0c0.4-0.2,0.9-0.4,1.3-0.6c0.4-0.2,0.9-0.4,1.3-0.5c0.1,0,0.2,0,0.3-0.1
		c0,0.9,0.1,1.8,0.4,2.7c0.7,1.3,1.7,2.9,3.5,3.2c0,0,0.1,0.1,0.2,0.1c0.3,0.1,0.7,0.2,1,0.2c0.5,0.1,0.6,0.1,1.7,0.1
		c0.9-0.1,1.7-0.2,2.5-0.5c0,0,0.1,0,0.1,0l0.2,0.1l0.2-0.1c0.2,0,0.3-0.1,0.5-0.1v0.1c0.3,0,0.7-0.3,0.8-0.3c0.1,0,0.2-0.2,0.4-0.2
		l3.5-1.6c0.1,0,0.3-0.2,0.3-0.2c0.4-0.1,0.7-0.3,1-0.5c0,0,0-0.1,0.1-0.2c0.1-0.1,0.2,0.1,0.3-0.1l1-0.5c0.4-0.4,0.6-0.6,0.9-0.8
		c0.5-0.1,0.7-0.6,1-0.8c0.2-0.1,0.4-0.2,0.5-0.2l0.1,0.3c-0.1,0.3-0.1,0.1-0.4,0.7v0.2c-0.3,0.6-0.5,1.2-0.6,1.9
		c-0.3,0.5-0.4,0.2-0.6,1.9h0c-0.4,0.9-0.6,2-0.5,3c0,0.7,0.3,0,0.5,0.4c0.3,0.6,1.1-0.2,1.7,0c0.3,0,0.5,0.1,0.7,0
		c0,0,0.1,0,0.4-0.1c0-0.2,0.8-0.4,0.8-0.5c0.1-0.4-0.4-0.8,0.1-1c-0.1-0.2,0-0.3,0-0.3l0.1-0.2c-0.1,0.2-0.2,0.5-0.1,0.4
		c0.4-0.2-0.3,0.7,0.7-0.7l0.1-0.1c0.1-0.1,0.3,0,0.3-0.3c0.1-0.2,0.2-0.4,0.2-0.6c0-0.3,0.1-0.2,0.3-0.6c0.3-1.1,0.2-0.5,0.4-0.8
		c0.2-0.2,0.4-0.5,0.5-0.7c0.3-0.5,0.6-1.1,0.8-1.7c0.3-0.6,0.6-1.1,0.9-1.6l0.2-0.7l0.1,0.1c0.1-0.4,0.3-0.7,0.5-1
		c0.3-0.6,0.7-0.7,0.9-1.2l0.5-0.6c0.3-0.5,0.5-0.7,0.6-1c0.1-0.2,0.2-0.4,0.4-0.6h-0.1l0.3-0.2l0.1-0.1c0.4-0.5,0.9-0.7,1.2-1.3
		l0.5-0.5c1.5-0.7,0.4-0.9,1.8-1.2c0.3,0.6,0.6,1.2,1.1,1.7l0.6,0.3c0.2,0.2,0.2,0.3,0.5,0.3c0.3,0.1,0.6,0.2,0.9,0.3
		c0.7,0.1,0.5,0,1,0c0.3,0,0.7,0,1,0c0.2-0.1,0.3-0.1,0.5-0.1c0.2,0,0.3,0,0.3,0c0.9-0.2,0,0.2,0.9,0.1c0,0-0.1,0-0.1-0.1
		c0.3-0.1,0.5-0.1,0.8,0c0.5-0.2,1-0.2,1.4-0.1c0.4-0.1,0.8-0.1,1.2,0c-0.1,0.1-0.1-0.1-0.2,0.1c0.1,0,0.2-0.1,0.3-0.1
		c0.1,0,0.1-0.1,0.3-0.1c0.8-0.2,1.4-0.2,1.8-0.3c0.5,0,0.9,0,1.4,0c0.4,0,1,0,1.5,0c0.7,0.1,1.3,0,2-0.1c0.1,0.2,1.1,0,1.1,0.1
		c0.8,0,1.7,0,2.5,0.1c-1,1.4-1.1,0.8-2.5,1.6c-8,3-8.9,3.6-15.7,6.6c0-0.1-0.9,0.3-0.9,0.3c-1.1,0.4-2.1,0.9-3,1.6
		c-0.1,0.1-0.2,0.1-0.4,0.2c-0.4,0.8-0.7,0.6-0.9,1s-0.1,0.4-0.1,0.8c-0.1,0.6-0.1,1.1-0.1,1.7c0.1,0,0.4-0.3,0.5,0
		c-0.1,0-0.2,0.1-0.6,0.2c0.2,0.2,0.5-0.1,0.4,0.1s-0.2,0-0.1,0.1c0.1,0.1,0.1,0.1,0.1,0.2v0c0.1,0,0.1,0,0.2,0l0.3-0.2h-0.1
		c0.2-0.2,0.4-0.4,0.4-0.2c0.1-0.1,0.2-0.1,0.3-0.1c0.1,0,0.2,0,0.2-0.1c0.6-0.1,1.4-1.2,2.2-1.1c0.1-0.2,0.4-0.4,0.6-0.3
		c0.3-0.3,0.7-0.3,1.1-0.5c0.1-0.1,0.3-0.2,0.5-0.1c0-0.1,0.2-0.2,0.2-0.3c0.5,0,1.1-0.5,1.5-0.5c0.5-0.2,1.1-0.4,1.6-0.5
		c0,0,0-0.1,0-0.1c0,0,0.1,0,0.1-0.1c-0.2,0-0.4,0-0.3,0s0.1,0,0.2,0.1c-0.1-0.1-0.2,0.1-0.2-0.1h0c0,0,0,0,0-0.1
		c0.4,0,1-0.5,1.4-0.4c0.1-0.2,0.2,0.1,0.5-0.1c0.3,0.1,0.7-0.5,1-0.2c0-0.2,0.4-0.1,0.6-0.2c-0.1,0-0.2,0-0.2,0
		c0.3-0.4,0.6-0.3,0.7-0.6c0.2,0,0.5,0,0.7,0c-0.1,0.1-0.1,0.1-0.2,0.2v0c1-0.3,2.1-0.7,3.1-1.1h-0.2c-0.8,0.2-1.7,0.5-2.5,0.8
		c0-0.1-0.2,0.1,0-0.2c0.3,0,0.6,0,0.8-0.1c0,0,0,0,0-0.2c0.5-0.2,1.2-0.2,1.6-0.4c0.5,0.1,0.9-0.3,1.5-0.3c0,0,0.2,0,0.3-0.2
		c0.5,0,0.9-0.5,1.3-0.3c-0.5,0.3-1.1,0.5-1.7,0.6c0.1,0,0.5-0.1,0.4,0c-0.1,0.1-0.6,0.2-0.9,0.3c0.1,0,0.1,0.1,0.1,0.2
		c-0.2,0-0.4-0.1-0.6-0.2c-0.1,0.4-0.3,0.2-0.3,0.4c0.2,0,0.7-0.2,0.9-0.1c0.5-0.4,0.8-0.6,1.2-0.4c-0.5,0-1.1,0.5-1.6,0.5
		c0,0-0.5,0.4-0.6,0.2c-0.1,0-0.1,0.3-0.1,0.3c-0.1,0.1-0.4,0.1-0.5,0.1c-0.2,0.4-0.4,0-0.5,0.4c-0.1,0-0.4,0.1-0.5,0.2
		c-0.2,0.1-0.4,0.1-0.5,0.3c-1.2,0.3-2.1,0.8-3,1.1c0-0.1,0,0-0.1,0c-0.9,0.5-1.8,0.9-2.7,1.2c0.4-0.1,0.7-0.3,1.1-0.4
		c0,0,0,0,0,0.1c0,0,0,0-0.1,0h0.1c-0.3,0.1-0.6,0.1-0.7,0.2c0.1,0,0.2,0,0.4,0l0,0c0.5-0.1,1-0.3,1.5-0.6c-0.1,0.1-0.3,0.1-0.5,0.1
		c0-0.1-0.1,0-0.2-0.1c0.1,0,0.3-0.1,0.4-0.1c0,0-0.1,0-0.1,0.1l0.3-0.1c0.1,0,0.2,0,0.3-0.1l0,0l0,0c0.1,0,0.2-0.1,0.3-0.1
		c-0.1,0-0.1,0.1-0.2,0.2c0.4,0,1.2-0.5,1.9-0.5c0.1-0.1,0.3-0.2,0.5-0.2c-0.4,0.3-0.9,0.5-1.4,0.6h0c-0.2,0.1-0.7,0-0.9,0.4
		c0.3-0.2,0.6-0.2,1-0.1c0,0-0.1,0-0.1,0.1h0c0.1,0,0.2,0,0.3,0c0,0,0.3-0.1,0.3-0.1h-0.2c0,0,0,0,0,0c-0.1,0-0.1,0-0.1,0
		c-0.1,0-0.1,0-0.1,0c0-0.2,0,0.1,0-0.1c0-0.1,0.1,0,0.1,0c0.1,0,0.4-0.5,0.5-0.2c-0.1,0-0.1,0-0.1,0.3c0.1-0.1,0.1-0.2,0.1-0.1
		c0,0,0,0.1,0,0.1h0.1l0.1-0.1c0,0-0.1-0.1-0.1,0v-0.1l0.1,0c0,0.1,0.6-0.5,0.8-0.3c0.1,0,0.2,0,0.2-0.1h-0.1c0.1,0-0.1-0.1,0-0.2
		c0.1-0.1,0.3,0.1,0.4,0.1c-0.1-0.1,0.1-0.2,0.1-0.1c0,0.1,0,0.1,0,0.1c0.1,0,0.2-0.1,0.3-0.1c-0.2-0.2-0.6-0.1-0.5-0.2
		c0.1-0.2,0.1,0,0.1-0.2c-0.9,0.4-1.8,0.5-2.6,0.8c0,0,0,0,0,0c0.4-0.3,0.9-0.5,1.3-0.6c0.2,0,0.6-0.3,1.1-0.3
		c0.6-0.4,1.2-0.6,1.9-0.7c0,0.1,0,0.1,0,0.1c0,0-0.1,0-0.1,0c0.1,0,0.2,0,0.3,0c-0.2,0.1-0.3,0.1-0.5,0.2c0,0-0.1,0-0.1,0
		c0.1,0,0.1-0.1,0.2-0.1c-0.8,0.2-1.6,0.6-2.4,0.9c0.5-0.2,0.9-0.3,1.3-0.4c0,0,0,0,0,0c0.3,0,0.4,0,0.4,0v-0.1
		c0.2,0.1,0.4,0,0.6-0.1c0.1,0,0.1,0.1,0.2,0c0-0.1,0.3,0,0.3,0l-0.1,0.3c0.4,0,0.7-0.1,1.1-0.3c-0.2-0.5-0.7,0.3-1,0l0,0
		c-0.1-0.1-0.2-0.1-0.4-0.2c0.2-0.1,0.4-0.1,0.6-0.2c0,0,0,0,0,0c0.1,0,0.2-0.1,0.3-0.1h-0.1c0,0,0,0,0.1,0c0,0,0,0,0,0c0,0,0,0,0,0
		c0.1-0.1,0.2-0.1,0.3,0c0.1-0.1,0.1-0.1,0.1-0.2c-0.1,0.1-0.3,0.1-0.4,0.2c0.1-0.1,0.1-0.2,0.1-0.3c0.3,0.1,0.6-0.1,0.9-0.1
		c-0.2,0.1-0.3,0.2-0.5,0.2c0,0,0,0,0.1,0c0.2,0.1,0.5-0.2,0.6-0.2c0,0.2-0.1,0.3-0.2,0.3c0.2,0,0.4-0.1,0.6-0.2
		c0,0.3-0.1,0.2,0,0.3c0.2-0.2,0.5,0,0.8,0c0-0.3-0.2,0-0.2-0.2c0.1,0,0.2-0.1,0.2,0c0.3-0.5,0.6-0.3,0.8-0.6c0,0.2,0.2,0.1,0.2,0.1
		c0.3-0.1,0.7-0.2,1-0.2c0.6-0.3,1.1-0.5,1.7-0.7C178.1,38.5,177.3,38.6,178.1,38.3z M165.1,42.6c-0.2,0-0.3,0.1-0.5,0.1
		c0,0,0.1-0.1,0.1-0.1c0,0-0.1,0-0.1,0c0,0,0,0,0,0c0.1,0,0.2-0.1,0.2-0.1l0,0L165.1,42.6z M166.2,42.1c0,0,0.1-0.1,0.1-0.1v0
		C166.2,42.1,166.2,42.1,166.2,42.1z M166.4,41.9C166.4,41.9,166.4,41.9,166.4,41.9C166.4,41.9,166.4,41.9,166.4,41.9z M169.9,40.8
		C169.9,40.8,169.9,40.8,169.9,40.8C169.9,40.8,169.9,40.8,169.9,40.8L169.9,40.8z M169.9,40.9L169.9,40.9L169.9,40.9
		C169.9,40.9,169.9,40.9,169.9,40.9C169.9,40.9,169.9,40.9,169.9,40.9z M170.8,40.1c0.1,0,0.2,0,0.3-0.1
		C171,40.1,170.9,40.1,170.8,40.1L170.8,40.1z M171.2,40.3C171.2,40.3,171.2,40.2,171.2,40.3c0-0.1,0.1-0.1,0.2-0.1
		C171.3,40.2,171.3,40.3,171.2,40.3z M173.7,39c0.1,0,0.2,0,0.2-0.1l0,0C173.9,39,173.8,39,173.7,39z"/>
	<path class="st0" d="M165.4,43.1h-0.1l-0.3,0.1h0.3c0,0,0,0,0,0C165.4,43.2,165.4,43.1,165.4,43.1
		C165.4,43.1,165.4,43.1,165.4,43.1z"/>
	<path class="st0" d="M172.7,40.4c-0.1,0-0.1,0-0.2-0.1C172.6,40.4,172.7,40.4,172.7,40.4z"/>
	<path class="st0" d="M182.2,26.2c0.1,0,0.1,0,0.1,0C182.3,26.3,182.3,26.2,182.2,26.2z"/>
	<path class="st0" d="M171.9,40C171.9,40,171.9,40,171.9,40C171.9,39.9,171.9,39.9,171.9,40z"/>
	<path class="st0" d="M165.2,24c0.3,0,0.3-0.1,0.3-0.2l0,0C165.4,23.8,165.4,24,165.2,24z"/>
	<path class="st0" d="M160.9,44.5L160.9,44.5C160.9,44.5,160.9,44.5,160.9,44.5z"/>
	<path class="st0" d="M160.8,44.3c0.7-0.5,1.5-0.9,2.4-1.2c0.1,0,0.4,0,0.5-0.1c-0.5,0.1-0.9,0.3-1.3,0.3c0.2-0.1,0.4-0.2,0.6-0.3
		c-0.8,0.2-1.7,0.6-2.4,1c0.4-0.1,1-0.3,1.5-0.6c-0.3,0.3-0.6,0.5-1,0.6l0,0C161,44.2,160.9,44.1,160.8,44.3z"/>
	<path class="st0" d="M161.2,44.6L161.2,44.6L161.2,44.6c0,0,0.1,0.3,0.1,0.1C161.4,44.6,161.2,44.6,161.2,44.6z"/>
	<path class="st0" d="M163.3,43.4c-0.1-0.1,0-0.1-0.1-0.1c-0.1,0-0.1,0-0.1,0.1c-0.3,0.2-0.6,0.4-0.9,0.6l0,0c-0.1,0-0.2,0-0.3,0.2
		c0.4-0.2,1-0.5,1.7-0.8H163.3z"/>
	<path class="st0" d="M160.5,44.7C160.5,44.7,160.5,44.7,160.5,44.7c0.1,0,0.2,0,0.2-0.1l0-0.1C160.5,44.6,160.5,44.6,160.5,44.7z"
		/>
	<path class="st0" d="M160.9,44.5c0,0-0.1,0-0.1,0.1C160.8,44.7,160.9,44.5,160.9,44.5L160.9,44.5z"/>
	<path class="st0" d="M170.7,39.2c-0.3,0.1-0.7,0.2-0.9,0.3C170.1,39.5,170.4,39.4,170.7,39.2z"/>
	<path class="st0" d="M170.8,39.1c0,0-0.1,0.1-0.1,0.1C170.7,39.2,170.8,39.2,170.8,39.1L170.8,39.1z"/>
	<path class="st0" d="M168.5,40.4c0.1,0,0.1,0,0.2-0.1h0C168.7,40.3,168.5,40.4,168.5,40.4z"/>
	<path class="st0" d="M168,40.4c0.1-0.2,0.3-0.2,0.5-0.2h0c0,0,0,0-0.1,0C168.3,40.1,168.1,40.2,168,40.4z"/>
	<path class="st0" d="M164,43.5c-0.3,0.3-0.6,0.2-0.8,0.5C163.6,44,163.8,43.8,164,43.5z"/>
	<path class="st0" d="M164.5,43.2l0.2-0.2C164.7,43,164.5,43,164.5,43.2z"/>
	<path class="st0" d="M164.6,43L164.6,43C164.6,43,164.5,43,164.6,43C164.5,43.1,164.6,43,164.6,43z"/>
	<path class="st0" d="M165.5,42.8C165.5,42.9,165.5,42.9,165.5,42.8C165.5,42.9,165.5,42.9,165.5,42.8L165.5,42.8z"/>
	<path class="st0" d="M162.3,44.5L162.3,44.5c0,0-0.1,0-0.2,0C162.2,44.5,162.2,44.5,162.3,44.5z"/>
	<path class="st0" d="M164.1,43.4c0.3,0.1,0.4,0.1,0.4-0.2l0,0.1C164.5,43.4,164.3,43.5,164.1,43.4z"/>
	<path class="st0" d="M162.9,44.2c-0.1,0-0.2,0-0.5,0.2C162.7,44.2,162.8,44.3,162.9,44.2z"/>
	<path class="st0" d="M162.9,44.1L162.9,44.1C162.9,44.1,162.9,44.1,162.9,44.1C162.9,44.2,162.9,44.1,162.9,44.1z"/>
	<path class="st0" d="M162.1,44.5C162.1,44.5,162.1,44.5,162.1,44.5C162.1,44.5,162.1,44.5,162.1,44.5z"/>
	<path class="st0" d="M165.2,42.8c0.1,0.1,0.1,0.1,0.2,0c-0.2-0.2-0.4,0-0.7,0.1C165,43.1,165.1,42.8,165.2,42.8z"/>
	<path class="st0" d="M164,43.5L164,43.5C164,43.5,164,43.5,164,43.5C164,43.5,164,43.5,164,43.5z"/>
	<path class="st0" d="M283,21.1c0.1-0.2,2.2-4.2,3.2-5.8c0.6-0.3,1.3-0.5,2-0.5c0.5,0,0.8-0.3,1.2-0.2c0.4,0,0.4-0.5,1.9-0.7
		l0.2-0.2c0.1,0.1,0.2,0.2,0.4,0.1c0.1,0,0.3-0.1,0.4-0.1l0.7-0.3c0.2-0.1,0.4,0,0.5,0.1c0.3-0.1-0.1-0.1-0.1-0.2
		c0-0.1,0.1-0.1,0.2-0.1c0.1,0,0.3-0.1,0.4-0.4c-0.2-0.5,0.2-0.7,0-1v-0.2c0.1,0,0.2,0,0.3-0.1c0-0.2-0.1-0.2-0.4-0.3h-0.1
		c0.1-0.2,0-0.2,0-0.5l0.2-0.1l0-1c-0.7-0.3-1.4-0.5-2.2-0.4h-1.8c-0.4-0.1,0.1,0-0.3-0.1c-1.1,0.1-0.5-0.1-0.2-0.1
		c-0.8,0-0.5-0.1-1.5,0c-1,0.1-2,0.2-2.8,0.2c-0.9,0-1.7,0.1-2.6,0.3c-0.6,0.1-2,0.4-3.4,0.6c-1.9,0.3-4,0.8-4.8,1.1
		c-0.9,0.3-1.7,0.5-2.6,0.5c-1.6,0.4,0.2,0.5-1.1,0.9l-0.1,0.2l-0.7,0.4c0,0,0,0.1,0,0.1l-0.1,0.3c-0.4,0.5-0.6,1.1-0.8,1.7
		c0,0,0,0,0,0.1c0-0.2,0-0.4,0-0.5c0-0.4,0-0.8-0.1-1.2c-0.2-0.5-0.3-1-0.3-1.5c0-0.4,0-1,0-1v-0.2c-0.6-0.3-1.6-0.2-1.8,0.5
		l-0.2,0.2c-0.2,0.1-0.4,0.2-0.5,0.2c0,0.2-0.1,0.4-0.2,0.6c-0.4,0.2-0.7,0.5-1,0.8l-0.6,0.3l-1.1,0.8c-0.4,0.3-0.8,0.6-1.2,0.9
		l-0.8,0.6l-1.2,0.9c-1,0.7-1.9,1.5-2.8,2.1l-0.5,0.4l-1.7,1.5c-0.6,0.6-1.4,1.1-1.9,1.7l-0.4,0.3c-0.5,0.6-1,1.1-1.7,1.6
		c0,0-0.1,0.2-0.2,0.2l0.3-0.7c0.3-0.4,0.7-0.9,0.7-1.1c0-0.2,0-0.5,0.5-0.7c0.1-0.2,0.2-0.5,0.2-0.7l0.8-1.3l0.7-1.3
		c0-0.1,0-0.4,0-0.4l0.4-0.8c0.1,0,0.1-0.1,0.2-0.4c0.1-0.2,0.2-0.3,0.3-0.5c0.2-0.5,0.5-1,0.9-1.4c0.2-0.5,0.5-0.8,0.8-1.3
		c0.4-0.8,0.4-1.8,0.2-2.6c-0.2-0.5-0.4-0.9-0.6-1.4l-0.5-0.9l-0.5-0.5l-0.6-0.7l-1.1-0.2c-0.5-0.2-1.1-0.4-1.1-0.4l-1.3,0.4
		c-0.2,0.4-0.6,0.8-0.9,1.1v0.2c0,0.1,0,0.2,0,0.3V9c-0.4,0.6-1,1.6-1.4,2.3c-0.4,0.9-0.8,1.8-1.4,2.6c-0.2,0.3-0.3,0.6-0.4,1
		l-0.5,0.9c-0.1,0.4-0.3,0.7-0.5,1c-0.1,0.4-0.3,0.8-0.5,1.2v0.2c-0.1,0.1-0.2,0.2-0.1,0.3l-0.5,0.7c-0.6,1.2-1.2,2.4-1.8,3.6
		l-0.4,0.8c-0.1,0.2-0.2,0.5-0.3,0.7c-0.2,0.4-0.3,0.8-0.4,1.2c-0.2,0.6-0.5,1.1-0.8,1.6c-0.1,0.3-0.1,0.5-0.3,0.5
		c-0.1,0.2-0.4,0.9-0.5,1.1c-0.1,0.3-0.2,0.6-0.2,0.9v-0.1l-0.8,1.9l-0.6,1.1c0,0,0,0.1,0,0.1c-0.6-0.2-1.7-0.1-2.2-0.1
		c-1,0.2-1.8,0.3-2.4,0.5l-1.2,0.4c-1,0.3-2,0.6-3.1,1l-2.5,0.8l-3.6,1.3l-0.9,0.4c-0.8,0.3-1.4,0.6-2,0.7c-0.6,0.2-0.8,0.1-1.4,0.3
		c-0.8,0.3-1.2,0-0.9-1c0-0.3,0,0,0-0.3c0-0.5,0.2-0.9,0.4-1.3l1.3-3.1l0.3-0.6c0.2-0.5,0.4-1,0.7-1.5c0.3-0.1,0.7-0.2,1-0.2
		c0.4,0.1,0.8,0,1-0.3c0.3-0.1,0.5-0.1,0.8-0.2l1.1-0.2c0.3-0.1,0.6-0.1,0.9-0.1c0.5-0.2,0.7-0.2,0.9-0.3c0.6-0.1,1.2-0.2,1.8-0.5
		l0.5-0.4c0.6-0.2,1.3-0.4,1.9-0.4l0.8-0.2c0.4-0.2,0.9-0.3,1.3-0.3c0.3-0.1,0.5-0.1,0.8-0.1c0.4,0,0.7-0.1,1-0.3v-0.3
		c0-0.1,0.2-0.1,0.2-0.3l0.4-0.2c-0.1-0.1,0.1-0.2,0.2-0.2c0.1,0,0.2-0.1,0.3-0.1c0.6-0.3,0.7-0.7,0.3-0.9c0,0-0.1,0-0.1,0
		c0.4,0,0.2,0-0.6,0h-0.4c0-0.2,0.1-0.5,0.2-0.7c0.1,0,0.2,0,0.2-0.1c0-0.1,0.1-0.1,0.1-0.1l0.4-0.3v0.1l0.6-0.4l0.2-0.2
		c0-0.1,0-0.2,0-0.4l0-0.3c-1.3-0.2-2.5-0.2-3.8,0.1l-1,0.1c-2.7,0.3-5.4,0.7-8.1,1.4c0.7-1.4,2.5-3.3,3-4.7c0-0.1,0.1-0.1,0.1-0.1
		s0.1-0.1,0-0.1l0.1-0.1c0.1-0.7,0.9-0.8,1.4-1l0.4-0.1c0.3,0,1-0.4,1.8-0.7l1.2-0.5c0.3-0.1,0.5-0.1,0.8-0.1l0.7-0.1
		c0.2,0,0.3,0,0.5-0.1c0.3-0.1,0.6-0.1,0.8-0.2c0.2-0.1,0.4,0,0.6,0c0.2,0,0.2-0.2,0.4-0.2c0.1-0.1,0.2-0.1,0.4,0
		c0.3-0.1,0.7-0.1,1-0.1c0.5,0,1.1-0.2,1.4-0.5l0.4-0.2c0,0,0.1,0,0.1,0l0.2-0.2c0.2-0.2,0.3-0.5,0.3-0.8c0.2,0,0.2-0.1,0.2-0.3
		l0.1-0.1h0.2c0.1-0.4,0-0.6,0.8-0.5c-0.5-0.5-0.5-1.2,0.5-1.8c0.5-0.7,0.1-0.9-0.5-0.9h-0.3c-0.7-0.1-1.4-0.2-2.1-0.2
		c-2.8,0-5.6,0.3-8.4,1.1l-2.9,0.5c0.3,0.3-0.6-0.4-0.8-0.5c-0.2-0.2-0.4-0.4-0.6-0.6l-0.3-0.1c0,0-0.2-0.1-0.4-0.1h0.1
		c-0.4-0.3-0.8-0.2-1.2,0.1l-0.6,0.7c-0.4,0.4-0.6,0.8-0.8,1.3c-1.1,2.2-2.6,4.2-3.6,6.5c-1.1,1.9-2.2,4-3.1,6.2l-0.7,1.6
		c0,0.1-0.1,0.3-0.2,0.3c0,0,0,0.2,0,0.2c-0.2,0.5-0.4,1-0.7,1.5c-0.9,2.4-1.7,4.9-2.3,7.4c-0.6-0.2-1.3-0.3-1.9-0.3h-0.7
		c-0.9-0.1-1.7-0.2-2.6-0.2c-0.5,0-0.9,0-1.4,0c-2.3,0.1-4.7,0.4-7,0.5l-1.6,0.2l-1.8,0.3c-0.4,0.1-0.8,0.2-1.3,0.3
		c-0.3,0.1-0.7,0.2-1,0.2c-0.4,0.3,0.5-0.7,0.9-1l0.3-0.5c0,0,0.1,0,0.1,0c0.1,0,0.2-0.8,0.4-0.5l0.4-0.1c0.3-0.4,0.7-0.7,1.2-0.8
		c0.3-0.1,0.5-0.3,0.6-0.6c0-0.1,0.8-0.5,0.8-0.6c0-0.1,0.1-0.1,0.3-0.2c0.2-0.1,0.4-0.2,0.5-0.4c0.3-0.4,0.7-0.7,1.1-1
		c0.3-0.3,0.6-0.6,1-0.8c0.9-1.1,1.9-2.2,3.1-3.1v-0.3l1.3-1.1c0.2-0.3,1-1.1,0.7-0.8c0,0,0-0.1,0.2-0.1c0.3-0.2,0.5-0.4,0.7-0.7
		l0.2-0.2l0.5-0.3l0.6-0.6l0.4-0.4c0.1-0.2,0.3-0.4,0.5-0.5l0.7-0.6v0.1c0.6-0.4,1.1-0.9,1.6-1.4h-0.1l0.7-0.4
		c0.8-0.5,1.5-1.2,1.8-2.1c0,0,0.1-0.1,0.2-0.2v0.1c0.2-0.1,0.6-0.2,0.4-0.2c0.7-0.3,0.8-1.4,0.7-2.1l-0.1-0.5
		c0-0.7-0.2-1.3-0.4-1.9c-0.2-0.2-0.3-0.7,0-0.8c0.1-0.3-0.1-0.8-0.4-1c-1.1-0.4-2.3-0.6-3.5-0.7c-1.3,0-2.6,0-3.9,0.1l-1.5,0
		c-3.3,0.4-6.9,0.9-9.7,1.5c-0.3,0.1-0.6,0.2-0.8,0.3c-0.3,0.1-0.6,0.2-0.9,0.2c-0.4,0.2-0.8,0.3-1.1,0.3c-0.5,0.1-0.9,0.3-1.4,0.5
		c0,0.1,0,0.1-0.1,0.1c-0.2,0.1-0.3,0.2-0.3,0.4h0c-0.1,0.1-0.2,0.1-0.4,0.2V15c-0.1,0.1-0.2,0.3-0.3,0.5c-0.1-0.2-0.1,0-0.1,0
		c0.2,0.3,0.4,0.7,0.5,1.1v0.3c-0.1,0.2-0.1,0.5,0,0.7c0.6,0,1.2,0.3,1.7,0.8c0.1,0,0.2,0.1,0.3,0.1l0.2,0.4c0.1,0,0.3,0,0.4,0
		c0.2,0,0.2,0,0.3,0.2l0.4,0.1h0.2c0,0.1,0.1,0.1,0.2,0.1l1.3-0.3c1-0.2,1.9-0.5,2.7-1.1c0.1,0,0.4,0,0.4,0.1l0.3-0.1l0.5-0.2
		c0,0,0,0,0.1,0c0.2,0.1,0.5,0,0.7-0.1c0.4,0,0.7-0.1,1-0.3c0.2,0,0.5-0.1,0.8-0.2c0,0,0,0,0,0c0.1-0.1,0.3-0.1,0.4,0
		c0.3,0,0.7-0.1,1-0.2c0,0.1-0.1,0.2-0.1,0.3c0.3,0,0.6,0,0.8,0l-1.3,1.4c-6,6-12.9,13.2-18.5,19.5h-0.3c-0.4,0-0.5,0.2-1.4,0.9
		l-0.7,0.6l-0.5,0.6c-0.3,0.3-0.6,0.5-0.9,0.8c-0.4,0.6-0.5,1.7,0.2,2.1c0,0.2,0.3,0.8,0.3,0.8l0.5,0.9c0.1,0.1,0.2,0.2,0.2,0.4
		l0.6,0.2c0.2,0.4,0.6,0.6,1.1,0.7c0.6,0.2,1.3,0.2,1.8-0.1l0.7-0.4l1.1-0.2l0.5-0.1c0.2,0,0.6-0.1,0.5-0.1c0.4-0.3,0.8-0.5,1.3-0.6
		c0.6,0,1.1-0.3,1.5-0.7v0c1.5-0.4,2.9-0.9,4.4-1.2c0.3-0.1,0.6-0.1,0.9-0.2c0.4,0,0.9-0.1,1.3-0.1c0.3,0.1,0.7,0.1,1,0
		c0.3-0.1,0.5-0.1,0.8,0c0.3-0.2,0.6-0.3,1-0.2v0.2c0.1,0,0.2,0,0.3-0.1l0.7-0.1c0.6-0.1,1.2-0.2,1.8-0.3c0.2,0,0.3,0,0.5-0.1
		c1.4,0.1,2.8,0.1,4.2,0c0.2,0,0.3,0,0.5,0c0.5-0.1,1.1-0.1,1.6,0c0.4,0.1,0.8,0,1.2,0c0,0.7,0.1,1.4,0.6,1.6c0.5,0.6,0.3,0.9,0.6,1
		c0.3,0.1,0.6,0.2,0.8,0.4c0.2,0.2,0.4,0.3,0.6,0.3c0.1,0.2,0.4,0.3,0.6,0.4l0.3-0.1l0.5,0.1c0.9,0.3,1.9,0.2,2.7-0.2
		c0.4-0.1,0.8-0.4,1.1-0.7l1.1-0.5h0.4c0.3-0.1,0.9-0.1,1.1-0.4l2.1-0.9c0.1-0.1,0.2-0.1,0.4-0.1c0.4-0.2,0.4-0.2,0.5-0.2
		c0.2,0,0.4,0,0.5,0l0.2-0.2c0.3-0.1,0.5-0.2,0.8-0.2c0.1-0.3,0.3-0.5,0.6-0.5l0.7-0.2c0.1,0,0.1,0,0.2,0c0.3-0.1,0.7-0.2,1-0.3
		l-0.1-0.1c0.5-0.3,1-0.5,1.5-0.6h0l0.5-0.1h0.2c0.1,0,0.2,0.1,0.6-0.4c0-0.1,0.3-0.2,0.3-0.2l2.4-1.1l-0.1-0.2l0.3-0.1
		c0,0,0.1,0,0.1,0V38c0.1,0,0.1-0.1,0.2-0.1c0.4-0.2,0.9-0.4,1.3-0.6c0.4-0.2,0.9-0.4,1.3-0.5c0.1,0,0.3,0,0.4-0.1
		c-0.3,0.7-0.6,1.4-0.7,2c-0.2,0.9-0.5,1.8-0.8,2.7c-0.1,0.4-0.2,0.9-0.3,1.3l-0.3,1.5c0,0.2,0,0.3-0.1,0.5c0,0.4,0,0.8,0.1,1.2
		c0.2,0.4,1.3,0.5,2.3,0.6c0.4,0.1,0.8,0.3,1.2,0.5c0.4,0,0.3-0.5,0.4-0.6c0-0.1-0.4-0.2,0.2-0.2v-0.3l0.2-0.3c0,0,0,0.4,0,0.5
		c0,0.1,0.1,0,0.3,0v0.3c0.5-0.1,0.6-0.3,0.6-0.5l0.1-0.3c0,0.3,0,0.3,0.1,0.3c0.1-0.5,0.1-0.5,0.3-0.5c0.2-0.4,0.3-0.8,0.4-1.2
		c0,0,0-0.1,0.1-0.1c-0.1,0.1-0.1,0.3-0.1,0.5c0,0.2,0,0.3,0,0.5c-0.1,0.3-0.1,0.7,0,1.1c0.2-0.2,0.3-0.7,0.4-0.8
		c0.3-0.2,0.5-0.6,0.5-1v-0.2l0.3-0.9c0-0.1,0-0.2,0.1-0.3c0-0.2,0-0.4,0.1-0.4s0.2-0.1,0.3-0.2c0-0.1,0-0.3,0.1-0.4
		c0-0.1,0-0.2,0-0.2c0-0.1,0-0.2,0-0.2l0.2-0.1l0.1-0.3c0-0.3,0-0.3-0.1-0.3l0.3-0.6c0-0.1,0-0.1,0-0.1c0.2-0.2,0.3-0.4,0.2-0.6
		c0,0.1-0.1,0.1-0.1,0.1l0.3-0.5l0.2-0.4c0.2-0.5,0.4-0.9,0.8-1.2c0-0.4,0.2-0.8,0.6-1c0.4-0.2,0.7-0.6,0.9-1c0-0.3,0.2-0.6,0.5-0.8
		c0.1-0.2,0.2-0.3,0.4-0.3l0.3-0.2c0.2-0.2,0.4-0.5,0.5-0.8c0.1-0.2,0.2-0.4,0.7-0.6c0-0.1,0.1-0.1,0.2-0.3l0.1-0.1
		c0.2-0.2,0.4-0.4,0.8-0.7c0.1-0.2,0.3-0.4,0.5-0.5h0.1l0.5,0.9c0.3,0.4,0.7,1.1,0.9,1.6c0.2,0.5,0.4,1,0.7,1.4l0.4,0.9
		c1.7,3,2.5,4.9,4.8,7.7c0.5,0.4,0.9,0.9,1.2,1.5l0.5,0.2l0.6,0.2l-0.1-0.1l0.4,0.3c0.1,0.4,0.3,0.7,0.7,0.8l0.3,0.1c0,0,0,0,0,0
		c0.1,0.1,0.3,0.1,0.4,0c0.1,0,0.3-0.1,0.5,0c0.1,0.1,0.2,0.1,0.3,0c0,0,0-0.1,0.4-0.1c0-0.1,0.1-0.2,0.3-0.4c0.6-0.5,0.9-0.6,0.9-1
		c-0.3-0.7-0.5-1-0.8-1.8l-0.2-0.2c0.2,0.1,0.4,0.1,0.6,0.1c-0.4-0.5-0.8-1-1.3-1.4v0l-0.7-0.8l-0.4-0.5c-0.1-0.3-0.3-0.5-0.7-0.6
		c0-0.1-0.1-0.1-0.2-0.1c0-0.2,0-0.1,0-0.2c0.1,0.1,0.2,0.2,0.4,0.3l0.2-0.1c-0.3-0.5-0.8-1.4-1.2-2c0-0.1,0-0.1,0-0.1l-0.5-0.5h0
		c0-0.3-0.1-0.5-0.3-0.5c0-0.1-0.1-0.2-0.2-0.3c-0.3-0.3-0.5-0.7-0.7-1.2l0.1-0.1c0.1,0.2,0.2,0.4,0.4,0.6v-0.1v-0.1
		c0,0.2,0.1,0.1,0,0.1c0.1,0,0.2,0,0.3,0.1l0.1,0.1c0.1,0.1,0.3,0.4,0.4,0.5c0.3,0.2,0.4,0.4,0.5,0.9l0.3,0.3
		c0.1,0.1,0.2,0.2,0.3,0.3c0,0.2,0.1,0.5,0.4,0.2l-0.3-0.2h0.1c-0.1-0.3-0.3-0.6-0.5-0.9c-0.2-0.3-0.3-0.5-0.5-0.8
		c0.1,0.2,0.2,0.3,0.4,0.3c0.1,0.3,0.2,0.5,0.5,0.6l0.2,0.4l0.1-0.1c-0.1-0.4-0.3-0.5-0.3-0.7c-0.8-1.3-1.6-2.7-2.3-4.1
		c-0.2-0.1-0.2-0.4-0.3-0.4l-0.3-0.3l-0.4-1c-0.6-1.1-1.2-2.3-1.7-3.5c0.2-0.1,0.8-0.8,0.8-0.8c0,0,0-0.1,0-0.1
		c0.3-0.2,0.6-0.5,0.8-0.8l0.4-0.4c1.3-0.9,2.7-1.9,3.9-3c1.1-1,2.2-1.8,3.4-2.6c0.2-0.2,0.5-0.4,0.8-0.5c0.2-0.3,0.5-0.4,0.8-0.5
		l0.4-0.3c0.4-0.2,0.8-0.4,1.3-0.6l0,0c0,0.1,0,0.1,0.1,0.2c0,0.1,0.1,0.3,0.1,0.4c0,0.2,0.1,0.3,0.1,0.5c0.4,0-0.3,0.2,0,0.3
		l0.4,0.3c0.3,0,0.5,0,0.7-0.1c0.1,0,0.3-0.1,0.4-0.1c0.1,0,0.4,0,0.4,0c0.3,0,0.3-0.1,0.4-0.1c0.6,0,0.4,0,1-0.3
		c0.3-0.1,0.6-0.2,0.9-0.4c0.8,0,1.5-0.2,2.3-0.4c0.1-0.1,0.2-0.1,0.4-0.1c0.2,0,1.7-1.1,1.5-0.7c0.1,0,0.3-0.2,0.3-0.2
		c-0.5,1.1-1.4,2.8-1.9,4l-0.7,1.6c-0.4,1-1,2.1-1.5,3.1s-0.9,1.9-1.4,3.1c-0.5,1.2-0.9,2.3-1.3,3.5c-0.6,1.4-1.1,2.9-1.6,4.4
		c-0.1,0.4-0.2,0.7-0.4,1.2l-0.9,3.2c0,0.5,0.1,1.1,0.3,1.6c0.1,0.4,0.2,0.8,0.3,1.2c0,0.7-0.1,1.8,0.5,1.9h0.5
		c0.2-0.2,0.5-0.3,0.7-0.3c0,0.1-0.1,0.1,0,0.7c0.2-0.1,0.3-0.3,0.4-0.5c0.1-0.1,0.1-0.1,0.2-0.1c0.1,0,0.2,0,0.3,0
		c0.2-0.2,0.3-0.3,0.4-0.3c0,0,0,0,0.1,0.1c0,0.1,0,0.2-0.1,0.2l0.2,0c0.3,0.5,0.6,0,0.6-0.3c0.1-0.1,0.2-0.2,0.4-0.3l0.3-0.3
		c0.1-0.1,0.2-0.1,0.2-0.2c0-0.2,0.3-0.3,0-0.4c0.2-0.4,0.5-1.2,0.3-0.8c0.2-0.4,0.3-0.7,0.5-1.1c0.3-0.5,0.5-1,0.6-1.5v-0.2
		l0.6-1.6l1.7-4c0.4-0.6,0.4-1.3,0.8-2.1l0.5-0.9c0.8-1.5,1.5-3.2,2.2-4.7c0.4-0.5,0.8-1.2,1-1.8c0.3-0.4,0.6-0.8,0.8-1.3
		c0.1-0.3,0.3-0.5,0.5-0.7l0.5-1.2C282.8,21.4,282.9,21.2,283,21.1z M210.7,40.8c0,0,0,0.1,0,0.1c-0.1,0-0.2-0.1-0.3-0.1
		C210.5,40.8,210.6,40.8,210.7,40.8z M209.8,41.4c-0.1,0-0.2,0.1-0.2,0.1L209.8,41.4c0.2,0,0.6-0.1,0.9-0.1c0,0,0,0.1,0,0.1
		C210.4,41.4,210.1,41.4,209.8,41.4z M237.6,34.2V34c0.1,0,0.2-0.1,0.1-0.2c0.1-0.1,0.2-0.1,0.4-0.2c0,0.2-0.1,0.3-0.1,0.5l-0.2,0.4
		h-0.5C237.5,34.4,237.6,34.2,237.6,34.2z M237.2,35.8c0,0,0.1-0.1,0.1-0.1l0,0c0,0,0,0.1,0,0.1C237.3,35.8,237.3,35.8,237.2,35.8z
		 M241.5,42.6c-0.2,0.4-0.3,0.9-0.3,1.4l-0.2,0.2c0.2-0.4,0.3-0.8,0.3-1.2l0.3-0.9l0.2-0.7C241.7,41.8,241.6,42.2,241.5,42.6z
		 M241.8,41.3L241.8,41.3C241.8,41.3,241.8,41.3,241.8,41.3z M241.9,40.7c0-0.1,0-0.2,0-0.3l0.4-0.7l0.1-0.1L241.9,40.7z
		 M260.1,39.5l0.2,0.1C260.2,39.6,260.1,39.5,260.1,39.5z M259.8,39c0,0-0.1,0-0.1-0.1L259.8,39z M259.2,35.5L259.2,35.5
		C259.2,35.6,259.2,35.6,259.2,35.5L259.2,35.5z M258.1,36.6l0.1,0.2c0,0-0.1,0-0.1,0V36.6z M257.7,36.5l0.6,0.7c0,0.1,0,0.2,0,0.3
		l-0.5-0.7L257.7,36.5L257.7,36.5z M257.1,35.1c0.1,0.2,0.1,0.4,0.2,0.7v0.1l-0.1-0.2l-0.2-0.4l0-0.1H257.1z M256.5,34.3
		c0,0.1,0,0,0,0.2l0,0C256.5,34.4,256.5,34.4,256.5,34.3z M268.4,16.9L268.4,16.9L268.4,16.9C268.5,16.9,268.4,16.9,268.4,16.9z"/>
	<path class="st0" d="M307,35.2c0.2-0.4,0.4-0.7,0.6-1.1l0.2-0.3c0-0.1,0.2-0.3,0.2-0.4c0.2-0.1,0.3-0.2,0.2-0.3
		c0-0.1,0.1-0.2,0.2-0.4c0.1-0.2,0.2-0.5,0.3-0.7c0.1-0.3,0.3-0.3,0.3-0.5l0.4-0.9c0.1-0.3,0.3-0.6,0.5-0.9c0,0,0.1-0.3,0.1-0.3l0,0
		l0.2-0.4c0-0.1,0-0.2,0-0.3l0.4-0.5c0.2-0.8,0.4-1.6,0.6-2.4v0c0.1-0.2,0.2-0.4,0.1-0.6c0-0.1,0-0.3,0-0.4c0,0,0.1-0.1,0.1-0.1
		c0.1-0.2,0.1-0.5,0.1-0.8c0-0.1,0-0.3,0-0.4c0-0.1,0-0.2,0-0.3c0.1-0.6,0.1-1.1,0-1.7c-0.1-1.3-0.5-2.6-1-3.9c-0.1,0-0.3,0-0.4-0.1
		c-0.1-0.1-0.1-0.4-0.1-0.5h-0.1c-0.2-0.1-0.4-0.3-0.4-0.6c-0.1-0.3-0.3-0.6-0.5-0.8c0,0.3,0,0.3,0.1,0.4h0
		c-0.1,0.1-0.4-0.1-0.5-0.3c0-0.1,0.1-0.1,0.1-0.2c0-0.9-0.2-1.8-0.6-2.6l-0.4-0.5c-0.2-0.3-0.4-0.6-0.5-0.9l-0.2-0.3
		c-0.2-0.5-1.2-0.5-2.2-0.6c-0.6-0.1-1.3-0.3-1.9-0.6c-0.1-0.1-0.1-0.2-0.1-0.2c0-0.1-0.1-0.3-0.2-0.4c-0.2,0-0.4,0-0.6,0
		c-0.1,0-0.3,0.2-0.4,0.1c-0.1,0-0.3,0.1-0.5,0c-0.1,0-0.2,0-0.3,0c-0.4,0.1-0.8,0.3-1.1,0.6l-0.4,0.2l-0.8,0.7
		c-0.2,0.2-0.5,0.4-0.8,0.6c-0.8,0.6-1.5,1.3-2.3,2l-0.8,0.8l-0.5,0.5c-1.3,1.6-2.9,3.3-4.2,4.8c-2.5,3-4.5,6.4-5.9,10
		c-1,2.1-1.6,4.4-1.7,6.8c-0.2,4.1,2.5,7.7,6.5,8.7c0.6,0.1,1.2,0.2,1.8,0.3c1,0,1.9-0.1,2.8-0.2c0.1,0,0.1,0,0.2,0
		c0.7-0.1,1.3-0.3,1.9-0.6c0.3-0.1,0.5-0.1,0.8-0.2l0.6-0.2c0.8-0.4,2.4-1.1,2.5-1.6v-0.2c0.1,0,0.2,0,0.3-0.1
		c0.1,0,0.5-0.2,0.5-0.2c0.3-0.4,0.6-0.6,1.1-0.7c0.2-0.3,0.4-0.6,0.7-0.9c-0.4,0-0.5,0-0.5,0c0.4-0.3,0.9-0.6,1.3-0.9
		c-0.1,0.2,0,0,0.2,0c0.4-0.3,0.7-0.7,1-1.1c0.2-0.4,0.4-0.7,0.7-1c0.5-0.3,1-0.7,1.3-1.2L307,35.2z M305.4,22.7
		c0,0.9-0.2,1.9-0.5,2.8c-0.8,2.2-1.8,4.2-3.1,6.1l-1,1.4c-1,1.4-2,2.6-3.2,3.8c-0.5,0.5-1,1-1.6,1.4l-1.1,0.8v-0.1
		c-0.8,0.7-1.8,1.1-2.9,1.3c-1.8,0.5-2.4,0.3-2.8-0.3l-0.2-0.3c0.2-2.5,0.9-4.9,2-7.1c0.9-2.1,2-4.1,3.5-5.9c0.3-0.3,0.6-0.6,0.8-1
		c1.7-2.3,3.6-4.4,5.7-6.3c0.6-0.6,1.3-1,2-1.4c0.3-0.1,0.5-0.3,0.7-0.5c0.2,0,0.2,0.3,0.4,0.5c0.2,0.2,0.1,0.5,0.5,0.6
		c0,0.3,0.1,0.6,0.3,0.8c0.1,0.3,0.2,0.5,0.2,0.8C305.3,20.9,305.4,21.8,305.4,22.7z"/>
	<path class="st0" d="M343.3,15.3c0.1-0.5,0.1-1,0.1-1.5c-0.1-0.1,0,0.1-0.2,0c0.1-0.3-0.1-0.6-0.1-0.8c-1.6-3.6-6.3-3.8-10.8-3.7
		c-0.3,0,0.2-0.2,0-0.1c-5.9,0.3-11.7,1.4-17.4,3.3c-0.2,0.2-0.5,0-0.7,0.1c-0.3,0.1-0.6,0.3-0.8,0.6l-0.5,0.3
		c-0.3,0.4-0.4,1-0.1,1.5c0.5,0.1,0.7,0.4,0.9,0.8c0.8,0.7-0.3,2,1,2c0.3,0,0.5,0,0.8,0c0.9-0.5,2-0.9,3-1.1c-0.2,0.3-0.3,1-0.7,1.3
		c-0.1,0.7-0.4,1.3-0.8,1.8c-1,2.4-2.3,4.5-3.3,6.6c-0.2,0.1-0.6,0.5-0.8,0.6c0,0.1-0.1,0-0.2,0.1c-0.5,0.5-0.5,1.3-0.1,1.8
		c-1.8,3.6-4.1,8.2-5.7,12.4c-0.4,0.9-0.7,1.3-1.1,2.3c-0.1,0.6,1.1,1.5,1.3,1.9c0.5,0.1,0.8,0,1.3,0c0.1-0.3,0.4-0.2,0.5-0.5
		c0,0,0,0.1,0,0.1c0.2-0.5,0.7-0.6,0.9-0.9c0,0-0.1,0.3,0,0.4c0.2-0.3,0.4-0.6,0.5-0.9c0.3-0.1,0.3-0.6,0.5-1c0.2,0.1,0,0,0.2,0
		c0.5-0.8,0.9-1.7,1.2-2.6c0.4-0.5,0.7-1.1,0.9-1.8c0.1,0,0.1-0.1,0.3-0.1c0.2-0.7,0.5-1.3,0.6-1.9c0,0.1-0.1,0.2-0.2,0.2
		c0.1,0.3-0.2,0.3-0.2,0.8c-0.1,0-0.1-0.1-0.1,0c-0.5,0.7-0.8,1.6-1.4,2.4v0.2c-0.1,0-0.1,0.2-0.2,0.2c0.9-2.3,1.9-4.5,3-6.6
		c0.4-0.4,0.6-1.1,0.9-1.3c-0.1,0.3-0.2,0.4-0.3,0.6c0.1,0.3-0.2,0.6-0.2,0.9c0.2-0.4,0.4-0.8,0.6-1.2c-0.2,0.9-0.7,1.4-0.9,2.2
		c-0.2,0.2-0.2,0.7-0.5,0.9c-0.3,0.9-0.9,1.3-1,2.3c-1,2.1-1.6,3.7-2.6,6.1c1.6-3.2,2.6-5.6,4-8.7c0.7-1.3,1.3-2.6,1.8-4h0.2
		c0.1-0.2,0.1-0.5,0.3-0.5c0,0.3-0.2,0.5-0.4,0.7c-0.1,0.1,0,0.1,0,0.2c-0.2,0.4-0.4,0.9-0.5,1.3c-0.3,0.4-0.5,0.8-0.7,1.2
		c-0.4,0.7-0.8,1.4-1.1,2.2c-0.1,0-0.1,0-0.1,0c0,0.1,0,0.2,0,0.4c-0.8,1.6-1.3,3.4-2.1,5c0,0.3-0.2,0.4-0.2,0.6
		c-0.2,0.3-0.4,0.7-0.5,1.1c0.8-1.5,1.4-2.7,2.1-4.2c0-0.1-0.1,0.1-0.1,0c0.4-0.9,0.9-1.6,1.3-2.3c-0.2,0.7-0.7,1.4-0.9,2.2
		c0.1,0,0.1-0.3,0.1-0.2c-0.1,0.3-0.2,0.6-0.3,0.8c0-0.2,0.1-0.3,0-0.4c-0.4,0.9-0.8,1.8-1.1,2.7c0.1-0.2,0.2-0.4,0.3-0.6h0.2
		c0.1-0.5,0.4-0.9,0.6-1.4c0,0-0.1,0.1-0.1,0.1c-0.1-0.1,0.1-0.2,0.1-0.3h0c0,0,0,0,0,0.1c0,0,0,0,0,0h0c0,0-0.1-0.2,0-0.2
		c0.1,0,0.2,0.1,0.2,0c0.1-0.6,0.3-1.2,0.7-1.6c0-0.1,0-0.1,0-0.2c0.3,0,0.2-0.3,0.4-0.4c0.2-0.7,0.5-1.3,0.9-1.8c0,0,0.2,0,0.2-0.2
		c0-0.1,0.2-0.3,0.1-0.5c0.1-0.1,0.2-0.3,0.2-0.3c0-0.1,0,0,0-0.1c0.2-0.5,0.4-1,0.7-1.4c0,0.1,0,0.1,0,0.2c0.1-0.1,0.1-0.3,0.1-0.5
		c0.1-0.4,0.2-0.8,0.5-1.1l0.4-0.5c0.1-0.1,0.3-0.2,0.4-0.4c0.1-0.1,0.2-0.5,0.3-0.5c0.1,0,0.3,0,0.5,0s0.3-0.1,0.3-0.1
		c0.4,0,0.7-0.1,1.1-0.2c0.2,0.1,0.7-0.4,0.9-0.3c1.3-0.5,2.2-0.4,3.2-0.8c0-0.1,0-0.1,0.1-0.1c0.1,0.1,0.2,0.1,0.3,0
		c0.8,5.1,2.3,10,4.5,14.6c0.4,0.2,0.4,0.7,0.8,1c0.1,0.9,0.6,0.8,1.7,0.7h0.2c0.3-0.2,0.2-0.6,0.2-0.9c-0.5-0.2,0.3,0,0.4-0.5
		c0,0,0.2,0.1,0.1,0c0-0.1-0.4,0-0.3-0.3c0.2-0.1,0.3-0.1,0.5-0.1c0,0.1,0.1,0.2,0.2,0.2c-0.1-0.2,0.1-0.2,0.1-0.2
		c-0.1-0.1-0.2-0.3-0.1-0.4c-0.4-0.6-0.7-1.3-1-2c-0.1,0-0.1-0.1-0.2-0.4c-0.1-0.2-0.1-0.8-0.5-1.1c-0.1-0.4-0.5-1-0.3-1.6
		c-0.1-0.3-0.2-0.7-0.2-1c0,0.2,0.2,0.4,0.2,0.3c0-0.1-0.1-0.2,0-0.2c0.1,0.2,0.1,0.2,0.2,0.2c0,0.4,0.2,0.9,0.2,1.4
		c0-0.1,0-0.2,0-0.3c0.4,1.1,0.8,2.2,1.3,3.2c0.2-0.1,0.1,0.4,0.5,0.5c-0.2-0.8-0.5-1.5-0.8-2.3c-0.1-0.2-0.1-0.2-0.1-0.2
		c-0.2-0.4-0.3-0.9-0.3-1.4c0,0,0,0,0,0.1c0-0.1,0-0.1-0.1-0.2v0c0,0,0,0,0,0c-0.1-0.5-0.2-0.9-0.2-1.4c0-0.1-0.1-0.1-0.1-0.3
		c-0.4-1.3-0.7-2.6-1-4c0-0.3-0.1-0.4-0.1-0.6c-0.1-1-0.4-2.3-0.4-3.4c-0.1-0.8,0.1-0.7-0.2-1.4l3.3-1.9l2.8-1.4l2.6-1.6
		c0.2-0.1,1.5-1,1.6-1.1C340.9,21,341,21,341,21c0.2-0.3,0.2-0.2,0.4-0.5c0-0.1,0.1-0.1,0.1-0.1c0.2-0.2,0.3-0.4,0.4-0.6l0.2-0.1
		v-0.1c0.7-0.8,1.1-1.8,1.1-2.9c0-0.1,0-0.2,0-0.3C343.4,16,343.5,15.5,343.3,15.3z M316.2,32.2c0-0.1,0-0.1,0-0.2
		C316.3,32.1,316.2,32.2,316.2,32.2z M316.3,35.3c0-0.1,0.1-0.2,0.2-0.2C316.4,35.2,316.3,35.4,316.3,35.3z M316.4,34.2
		c-0.3,0.7-0.6,1.6-1,2.4c-0.1-0.2,0-0.4,0-0.6c0.6-0.9,1-2,1.5-2.9h0C316.9,33.5,316.7,33.9,316.4,34.2z M316.9,33
		c0.1-0.3,0.3-0.5,0.5-0.7C317.4,32.6,317.2,32.9,316.9,33z M320.7,29.9L320.7,29.9L320.7,29.9c0.1-0.1,0.2-0.3,0.2-0.1
		S320.7,29.9,320.7,29.9z M329,37.4L329,37.4c0.3,0.4,0.4,0.9,0.3,1.4C329.2,38.4,329.1,37.9,329,37.4z M329.5,39
		c-0.1,0,0-0.1-0.1-0.1C329.5,38.9,329.7,39,329.5,39z M330.7,39c-0.2-0.1-0.2-0.4-0.3-0.6h0c-0.1-0.2-0.2-0.3-0.1-0.5
		c-0.3-0.5-0.4-1-0.5-1.6c0.3,0.5,0.4,1.3,0.7,1.7C330.6,38.3,330.7,38.6,330.7,39z M336.3,17c-1.5,1.3-3.1,2.4-4.9,3.3
		c-2.8,1.4-5.8,2.7-8.6,3.9h-0.1V24c0.7-1.2,1.5-2.9,2.3-4.2c0.5-0.5,0.8-1.2,0.9-1.9c-0.1-0.7-0.2-1.4-0.5-2
		c0.4-0.3,0.9-0.5,1.4-0.6c1.6-0.3,3.1-0.6,4.7-0.7c1.8-0.4,3.7-0.2,5.4,0.4C337.3,15.6,336.8,16.4,336.3,17z"/>
	<path class="st0" d="M313.9,39.9c0,0,0,0.1,0,0.1C313.9,40,313.9,40,313.9,39.9z"/>
	<path class="st0" d="M331.9,38.6c0,0.2,0.1,0.4,0.1,0.6c0,0,0,0,0,0c0.1,0.5,0.4,0.9,0.4,1.4c0.4-0.5-0.2-1.1-0.3-1.8
		c0,0,0,0.1,0,0.1C332,38.8,331.9,38.6,331.9,38.6z"/>
	<path class="st0" d="M332.1,38.8c0,0,0-0.1,0-0.1C332,38.7,332,38.8,332.1,38.8z"/>
</g>
</svg>
